<?xml version="1.0" encoding="UTF-8"?>
<svg id="Layer_1" xmlns="http://www.w3.org/2000/svg" version="1.1" xmlns:xlink="http://www.w3.org/1999/xlink" viewBox="0 0 1036 430">
  <!-- Generator: Adobe Illustrator 29.8.1, SVG Export Plug-In . SVG Version: 2.1.1 Build 2)  -->
  <defs>
    <style>
      .st0 {
        fill: url(#linear-gradient2);
      }

      .st1 {
        fill: #f07f10;
      }

      .st2 {
        fill: #fff;
      }

      .st3 {
        fill: url(#linear-gradient1);
      }

      .st4 {
        fill: url(#linear-gradient4);
      }

      .st5 {
        fill: url(#linear-gradient5);
      }

      .st6 {
        fill: url(#linear-gradient3);
      }

      .st7 {
        fill: url(#linear-gradient);
      }

      .st8 {
        fill: #e22713;
      }
    </style>
    <linearGradient id="linear-gradient" x1="72.56" y1="357.55" x2="72.56" y2="157.66" gradientTransform="translate(0 432) scale(1 -1)" gradientUnits="userSpaceOnUse">
      <stop offset="0" stop-color="#e22713"/>
      <stop offset=".1" stop-color="#e22c18"/>
      <stop offset=".23" stop-color="#e43a28"/>
      <stop offset=".38" stop-color="#e75242"/>
      <stop offset=".53" stop-color="#ec7366"/>
      <stop offset=".7" stop-color="#f29e95"/>
      <stop offset=".87" stop-color="#f8d1cd"/>
      <stop offset="1" stop-color="#fff"/>
    </linearGradient>
    <linearGradient id="linear-gradient1" x1="120.94" y1="403.82" x2="120.94" y2="113.66" gradientTransform="translate(0 432) scale(1 -1)" gradientUnits="userSpaceOnUse">
      <stop offset="0" stop-color="#e22713"/>
      <stop offset=".1" stop-color="#e22c18"/>
      <stop offset=".23" stop-color="#e43a28"/>
      <stop offset=".38" stop-color="#e75242"/>
      <stop offset=".53" stop-color="#ec7366"/>
      <stop offset=".7" stop-color="#f29e95"/>
      <stop offset=".87" stop-color="#f8d1cd"/>
      <stop offset="1" stop-color="#fff"/>
    </linearGradient>
    <linearGradient id="linear-gradient2" x1="169.31" y1="433.27" x2="169.31" y2="85.66" gradientTransform="translate(0 432) scale(1 -1)" gradientUnits="userSpaceOnUse">
      <stop offset="0" stop-color="#e22713"/>
      <stop offset=".1" stop-color="#e22c18"/>
      <stop offset=".23" stop-color="#e43a28"/>
      <stop offset=".38" stop-color="#e75242"/>
      <stop offset=".53" stop-color="#ec7366"/>
      <stop offset=".7" stop-color="#f29e95"/>
      <stop offset=".87" stop-color="#f8d1cd"/>
      <stop offset="1" stop-color="#fff"/>
    </linearGradient>
    <linearGradient id="linear-gradient3" x1="-975.4" y1="-389.05" x2="-975.4" y2="-588.94" gradientTransform="translate(-854.47 672.87) rotate(-180) scale(1 -1)" gradientUnits="userSpaceOnUse">
      <stop offset="0" stop-color="#e22713"/>
      <stop offset=".1" stop-color="#e22c18"/>
      <stop offset=".23" stop-color="#e43a28"/>
      <stop offset=".38" stop-color="#e75242"/>
      <stop offset=".53" stop-color="#ec7366"/>
      <stop offset=".7" stop-color="#f29e95"/>
      <stop offset=".87" stop-color="#f8d1cd"/>
      <stop offset="1" stop-color="#fff"/>
    </linearGradient>
    <linearGradient id="linear-gradient4" x1="-927.04" y1="-342.78" x2="-927.04" y2="-632.94" gradientTransform="translate(-854.48 672.87) rotate(-180) scale(1 -1)" gradientUnits="userSpaceOnUse">
      <stop offset="0" stop-color="#e22713"/>
      <stop offset=".1" stop-color="#e22c18"/>
      <stop offset=".23" stop-color="#e43a28"/>
      <stop offset=".38" stop-color="#e75242"/>
      <stop offset=".53" stop-color="#ec7366"/>
      <stop offset=".7" stop-color="#f29e95"/>
      <stop offset=".87" stop-color="#f8d1cd"/>
      <stop offset="1" stop-color="#fff"/>
    </linearGradient>
    <linearGradient id="linear-gradient5" x1="-878.66" y1="-313.33" x2="-878.66" y2="-660.94" gradientTransform="translate(-854.48 672.87) rotate(-180) scale(1 -1)" gradientUnits="userSpaceOnUse">
      <stop offset="0" stop-color="#e22713"/>
      <stop offset=".1" stop-color="#e22c18"/>
      <stop offset=".23" stop-color="#e43a28"/>
      <stop offset=".38" stop-color="#e75242"/>
      <stop offset=".53" stop-color="#ec7366"/>
      <stop offset=".7" stop-color="#f29e95"/>
      <stop offset=".87" stop-color="#f8d1cd"/>
      <stop offset="1" stop-color="#fff"/>
    </linearGradient>
  </defs>
  <g>
    <g>
      <g>
        <path class="st2" d="M226.18,5.2h10.45l16.37,63.66,18.1-63.66h10.99l17.23,63.44,16.48-63.44h10.56l-21.76,75.08h-10.99l-17.45-60.43-18.1,60.43-10.88.11L226.18,5.2Z"/>
        <path class="st2" d="M367.94,81.03c-21.11,0-37.7-15.83-37.7-38.35s16.59-38.35,37.7-38.35,37.7,15.83,37.7,38.35-16.48,38.35-37.7,38.35ZM367.94,72.52c15.83,0,27.68-11.53,27.68-29.84s-11.85-29.84-27.68-29.84-27.68,11.42-27.68,29.84,11.85,29.84,27.68,29.84Z"/>
        <path class="st2" d="M439.58,5.2c17.67,0,26.07,9.8,26.07,22.08,0,9.59-5.28,18.74-17.88,21.54l18.85,31.45h-11.74l-17.88-30.7h-11.85v30.7h-9.8V5.2h24.24-.01ZM439.58,13.28h-14.43v28.44h14.43c11.1,0,15.94-6.03,15.94-14.43s-4.74-14-15.94-14h0Z"/>
        <path class="st2" d="M487.4,5.2v67.11h26.28v7.97h-36.08V5.2h9.8Z"/>
        <path class="st2" d="M584.14,42.9c0,23.27-15.19,37.38-39.85,37.38h-23.38V5.2h23.38c24.67,0,39.85,14.43,39.85,37.7ZM544.28,72.2c19.6,0,29.84-10.99,29.84-29.3s-10.23-29.73-29.84-29.73h-13.57v59.03h13.57Z"/>
      </g>
      <g>
        <path class="st2" d="M255.8,353.06c-15.08,0-25.74-8.4-25.96-20.79h10.45c.65,6.25,5.06,12.49,15.51,12.49,9.48,0,15.08-5.39,15.08-12.49,0-20.25-40.61-7.33-40.61-35.22,0-12.39,10.02-20.79,24.88-20.79s23.7,7.86,24.88,19.28h-10.77c-.65-5.06-5.39-10.77-14.54-10.88-8.08-.21-14.43,3.99-14.43,12.06,0,19.39,40.5,7.33,40.5,35.12,0,10.66-8.72,21.22-24.99,21.22h0Z"/>
        <path class="st2" d="M332.39,285.2h-30.59v25.1h27.36v8.08h-27.36v25.85h30.59v8.08h-40.39v-75.19h40.39v8.08h0Z"/>
        <path class="st2" d="M368.26,277.23c17.67,0,26.07,9.8,26.07,22.08,0,9.59-5.28,18.74-17.88,21.54l18.85,31.45h-11.74l-17.88-30.7h-11.85v30.7h-9.8v-75.08h24.24-.01ZM368.26,285.31h-14.43v28.44h14.43c11.1,0,15.94-6.03,15.94-14.43s-4.74-14-15.94-14h0Z"/>
        <path class="st2" d="M406.29,277.23h9.8v75.08h-9.8v-75.08h0Z"/>
        <path class="st2" d="M469.95,285.2h-30.59v25.1h27.36v8.08h-27.36v25.85h30.59v8.08h-40.39v-75.19h40.39v8.08h0Z"/>
        <path class="st2" d="M505.39,353.06c-15.08,0-25.74-8.4-25.96-20.79h10.45c.65,6.25,5.06,12.49,15.51,12.49,9.48,0,15.08-5.39,15.08-12.49,0-20.25-40.61-7.33-40.61-35.22,0-12.39,10.02-20.79,24.88-20.79s23.7,7.86,24.88,19.28h-10.77c-.65-5.06-5.38-10.77-14.54-10.88-8.08-.21-14.43,3.99-14.43,12.06,0,19.39,40.5,7.33,40.5,35.12,0,10.66-8.73,21.22-24.99,21.22h0Z"/>
      </g>
      <g>
        <path class="st8" d="M229.09,95.49h53.86v18.96h-29.94v10.56h21.54v17.99h-21.54v28.76h-23.91v-76.26h-.01Z"/>
        <path class="st8" d="M288.88,95.49h23.91v76.26h-23.91v-76.26Z"/>
        <path class="st8" d="M394.55,95.49v76.26h-23.91l-25.31-38.35v38.35h-23.91v-76.26h23.91l25.31,38.99v-38.99s23.91,0,23.91,0Z"/>
        <path class="st8" d="M452.07,160.23h-25.42l-3.77,11.53h-25.1l27.9-76.26h27.58l27.79,76.26h-25.21l-3.77-11.53ZM439.36,121.02l-6.89,21.22h13.79l-6.89-21.22h0Z"/>
        <path class="st8" d="M557.42,95.49v76.26h-23.91l-25.31-38.35v38.35h-23.91v-76.26h23.91l25.31,38.99v-38.99s23.91,0,23.91,0Z"/>
        <path class="st8" d="M601.59,94.74c20.14,0,33.82,12.06,36.95,30.05h-25.21c-2.26-5.06-6.79-7.97-12.17-7.97-8.08,0-13.03,6.57-13.03,16.69s4.95,16.7,13.03,16.7c5.39,0,9.91-2.91,12.17-7.97h25.21c-3.12,17.99-16.8,30.05-36.95,30.05-23.37,0-37.7-16.05-37.7-38.78s14.33-38.78,37.7-38.78h0Z"/>
        <path class="st8" d="M645,95.49h23.91v76.26h-23.91v-76.26Z"/>
        <path class="st8" d="M726.44,160.23h-25.42l-3.77,11.53h-25.1l27.9-76.26h27.58l27.79,76.26h-25.2l-3.77-11.53h-.01ZM713.72,121.02l-6.89,21.22h13.79l-6.89-21.22h0Z"/>
        <path class="st8" d="M782.56,95.49v58.17h23.05v18.1h-46.96v-76.26h23.91Z"/>
      </g>
      <g>
        <path class="st8" d="M229.09,187.04h23.91v76.26h-23.91v-76.26h0Z"/>
        <path class="st8" d="M334.76,187.04v76.26h-23.91l-25.31-38.35v38.35h-23.91v-76.26h23.91l25.31,38.99v-38.99h23.91Z"/>
        <path class="st8" d="M416.52,187.04v76.26h-23.91l-25.31-38.35v38.35h-23.91v-76.26h23.91l25.31,38.99v-38.99h23.91Z"/>
        <path class="st8" d="M462.3,264.06c-21.65,0-39.32-16.26-39.32-39.21s17.67-39.1,39.32-39.1,39.1,16.16,39.1,39.1-17.56,39.21-39.1,39.21ZM462.3,241.76c9.59,0,14.87-6.79,14.87-16.91s-5.28-17.02-14.87-17.02-14.97,6.68-14.97,17.02,5.17,16.91,14.97,16.91Z"/>
        <path class="st8" d="M559.25,187.04h25.42l-25.64,76.26h-30.92l-25.64-76.26h25.42l15.73,52.46,15.62-52.46h.01Z"/>
        <path class="st8" d="M636.81,251.78h-25.42l-3.77,11.53h-25.1l27.9-76.26h27.58l27.79,76.26h-25.2l-3.77-11.53h-.01ZM624.1,212.57l-6.89,21.22h13.79l-6.89-21.22h0Z"/>
        <path class="st8" d="M664.71,187.04h64.2v18.96h-20.25v57.3h-23.91v-57.3h-20.03v-18.96h-.01Z"/>
        <path class="st8" d="M733.23,187.04h23.91v76.26h-23.91v-76.26h0Z"/>
        <path class="st8" d="M802.92,264.06c-21.65,0-39.32-16.26-39.32-39.21s17.66-39.1,39.32-39.1,39.1,16.16,39.1,39.1-17.56,39.21-39.1,39.21ZM802.92,241.76c9.59,0,14.87-6.79,14.87-16.91s-5.28-17.02-14.87-17.02-14.97,6.68-14.97,17.02,5.17,16.91,14.97,16.91Z"/>
        <path class="st8" d="M921.62,187.04v76.26h-23.91l-25.31-38.35v38.35h-23.91v-76.26h23.91l25.31,38.99v-38.99h23.91Z"/>
      </g>
      <g>
        <rect class="st7" x="51.98" y="77.67" width="41.16" height="99.23"/>
        <rect class="st3" x="100.36" y="32.86" width="41.16" height="144.05"/>
        <rect class="st0" x="148.73" y="4.34" width="41.16" height="172.57"/>
        <rect class="st6" x="100.35" y="181.37" width="41.16" height="99.23"/>
        <rect class="st4" x="51.98" y="181.36" width="41.16" height="144.05"/>
        <rect class="st5" x="3.6" y="181.36" width="41.16" height="172.57"/>
      </g>
    </g>
    <rect class="st8" x="229.98" y="369.9" width="240.1" height="56.44"/>
    <g>
      <path class="st2" d="M299.38,413.95l-12.24-14.15v14.15h-5.19v-31.63h5.19v14.43l12.29-14.43h6.51l-13.74,15.84,13.97,15.79h-6.79Z"/>
      <path class="st2" d="M315.04,386.51v9.28h10.92v4.23h-10.92v9.69h12.29v4.23h-17.48v-31.67h17.48v4.23h-12.29Z"/>
      <path class="st2" d="M358.77,413.95h-5.19l-15.61-23.62v23.62h-5.19v-31.67h5.19l15.61,23.57v-23.57h5.19v31.67Z"/>
      <path class="st2" d="M388.12,382.33l-10.47,20.16v11.47h-5.19v-11.47l-10.51-20.16h5.78l7.33,15.52,7.33-15.52h5.73Z"/>
      <path class="st2" d="M410.38,407.49h-13.24l-2.28,6.46h-5.42l11.33-31.67h6.01l11.33,31.67h-5.46l-2.28-6.46h.01ZM408.92,403.26l-5.14-14.7-5.19,14.7h10.33Z"/>
    </g>
  </g>
  <g>
    <g>
      <path class="st1" d="M590.92,329.97h-16.89l-2.76,7.06h-16.27l16.43-39.61h21.8l16.43,39.61h-16.27l-2.76-7.06h.31ZM587.07,319.85l-4.6-12.13-4.6,12.13h9.22-.01Z"/>
      <path class="st1" d="M681.96,297.58l-13.05,39.61h-21.8l-6.44-22.88-6.44,22.88h-21.8l-13.05-39.61h15.81l8.3,27.94,8.6-27.94h17.5l8.6,27.94,8.3-27.94h15.81-.35Z"/>
      <path class="st1" d="M706.98,329.97h-16.89l-2.76,7.06h-16.27l16.43-39.61h21.8l16.43,39.61h-16.27l-2.76-7.06h.31ZM703.14,319.85l-4.6-12.13-4.6,12.13h9.22-.01Z"/>
      <path class="st1" d="M766.39,325.83l7.06,11.36h-17.5l-5.52-9.37h-8.6v9.37h-14.74v-39.61h31.17c9.06,0,15.2,6.29,15.2,15.2s-2.61,10.6-7.06,13.05h0ZM741.84,315.39h13.67c1.53,0,3.22,0,3.22-2.76s-1.84-2.76-3.22-2.76h-13.67v5.52Z"/>
      <path class="st1" d="M823.2,317.38c0,13.51-9.06,19.8-18.57,19.8h-29.48v-39.61h29.48c9.52,0,18.57,6.29,18.57,19.8h0ZM808.46,317.38c0-7.36-5.22-7.36-8.45-7.36h-10.14v14.74h10.14c3.22,0,8.45,0,8.45-7.36h0Z"/>
      <path class="st1" d="M839.17,323.22c0,1.99,1.84,3.22,11.21,3.22s9.98-.61,9.98-1.99-1.23-1.99-10.6-2.15c-17.96-.61-24.72-3.53-24.72-12.74s8.6-12.44,24.26-12.44,24.26,3.68,24.26,13.82h-14.74c0-2.15-3.37-2.61-10.6-2.61s-8.3.31-8.3,1.84,1.38,1.53,9.98,1.84c15.66.61,25.34,1.69,25.34,12.13s-9.06,13.67-25.34,13.67-25.34-2.76-25.34-14.59h14.74-.15Z"/>
    </g>
    <g>
      <path class="st2" d="M739.52,368.51c0-4.91,3.07-8.91,7.68-10.9-1.53-1.07-2.45-2.61-2.45-4.45,0-4.3,4.14-7.36,9.68-7.36s7.36,3.53,6.9,5.06l-3.68.46c0-.92-.31-2.76-2.61-2.76-2.91,0-4.91,2.3-4.91,4.91,0,1.53,1.23,2.61,3.37,2.76h1.07v2.91h-.31c-5.52.15-9.22,3.37-9.22,8.45,0,3.37,2.3,5.52,6.44,5.52,5.52,0,9.52-4.45,9.37-10.44-1.23,0-2.61.31-3.53.92-2.3,1.53-2.3,3.99-1.53,5.06l-2.3,1.38c-2.76-3.68-1.23-7.99,1.38-9.52,2.91-1.69,7.21-1.53,9.06-3.07s1.23-3.83.31-5.06l2.61-1.23c1.99,2.91,2.61,7.84-.61,10.29-.61.46-1.38.77-2.3.92.77,8.91-4.91,15.2-13.51,15.2-7.06,0-11.06-3.68-11.06-9.06h.15-.01Z"/>
      <path class="st2" d="M783.89,368.36c0-16.12,11.82-37.3,25.49-37.3,5.06,0,7.99,3.37,7.99,8.3,0,3.37-1.23,7.06-3.22,10.29l-4.45-1.53c2.15-3.83,3.22-6.9,3.22-9.37,0-3.07-1.38-4.91-3.68-4.91-7.68,0-19.03,19.8-19.19,33.93,0,3.22,1.38,5.68,3.99,5.83,6.75,0,12.59-13.51,13.51-16.58h5.83c-5.52,14.74-8.91,23.04-10.75,25.95-3.22,5.22-6.9,7.99-10.75,7.84l-1.07-3.68c2.15,0,5.06-1.69,7.21-5.22,1.53-2.45,2.61-4.91,4.3-9.06-2.76,3.07-5.98,5.22-9.68,5.22-5.52,0-8.6-4.76-8.6-9.83l-.15.15h.01Z"/>
      <path class="st2" d="M824.89,374.65c-1.69,2.15-3.68,3.22-5.68,3.22-3.83,0-6.29-2.91-6.29-7.21,0-6.29,4.45-13.82,10.75-13.67,2.45,0,4.14,1.38,4.91,3.53l.92-3.22h4.91c-.46,1.53-2.15,5.37-3.83,10.44-.92,2.45-1.23,3.99-1.23,4.6,0,.92.46,1.53,1.38,1.53,1.99,0,4.76-3.07,7.06-6.75l2.91,1.53c-3.99,6.44-7.36,9.52-10.9,9.52-2.61,0-4.45-1.23-4.91-3.22v-.31h0ZM820.44,373.73c3.22,0,5.98-6.6,5.98-10.44,0-2.15-.77-3.53-2.15-3.53-3.37,0-6.14,7.06-6.14,10.6,0,2.15.92,3.53,2.3,3.53v-.15Z"/>
      <path class="st2" d="M837.94,365.91c.77-5.22,3.83-17.96,8.3-25.8,2.45-4.45,4.91-6.6,7.36-6.6,1.99,0,3.37,1.38,3.37,3.68,0,4.3-2.45,11.06-6.6,18.88-2.61,4.76-5.68,9.52-7.68,12.59-.15,3.22.77,5.06,2.45,5.22,2.91,0,5.37-2.61,7.84-6.6l2.76,1.53c-3.53,5.68-6.29,9.52-11.36,9.52-5.37,0-7.52-4.14-6.29-12.28l-.15-.15h0ZM849.15,352.39c3.22-5.98,5.06-12.44,5.06-15.2,0-.46-.15-.77-.46-.77-1.23,0-6.44,10.75-9.98,25.34,1.53-2.45,3.22-5.68,5.37-9.52v.15h.01Z"/>
      <path class="st2" d="M864.04,374.96c-1.69,2.15-3.68,3.22-5.68,3.22-3.83,0-6.29-2.91-6.29-7.21,0-6.29,4.45-13.82,10.75-13.67,2.45,0,4.14,1.38,4.91,3.53l.92-3.22h4.91c-.46,1.53-2.15,5.37-3.83,10.44-.92,2.45-1.23,3.99-1.23,4.6,0,.92.46,1.53,1.38,1.53,1.99,0,4.76-3.07,7.06-6.75l2.91,1.53c-3.99,6.44-7.36,9.52-10.9,9.52-2.61,0-4.45-1.23-4.91-3.22v-.31h0ZM859.58,374.04c3.22,0,5.98-6.6,5.98-10.44,0-2.15-.77-3.53-2.15-3.53-3.37,0-6.14,7.06-6.14,10.6,0,2.15.92,3.53,2.3,3.53v-.15Z"/>
      <path class="st2" d="M904.57,374.65c-1.38,0-2.3,1.38-2.91,2.91l-.31.61h-5.68l15.2-40.54h5.68l-12.44,33.47c.46,0,.77-.31,1.23-.31,3.83,0,3.22,3.68,6.14,3.68,5.98,0,14.13-13.05,14.59-27.18.15-7.99-2.61-12.74-9.37-12.74-5.06,0-10.14,3.22-12.59,6.29-3.99,4.76-5.37,9.68-4.6,15.2l-3.83,2.3c-3.22-5.68-1.23-13.51,4.6-19.95,3.37-3.53,9.52-6.9,16.89-6.75,10.29,0,14.89,6.75,14.59,17.5-.31,12.28-9.06,29.63-19.34,29.63-5.83,0-5.22-4.3-7.68-4.3l-.15.15h.01Z"/>
      <path class="st2" d="M928.52,374.34c0-3.07,1.53-6.14,4.76-16.43h5.06c-1.53,4.14-4.91,13.05-4.91,15.05,0,.92.46,1.53,1.23,1.53,2.76,0,5.98-4.91,7.36-6.75l2.76,1.53c-3.83,6.29-7.52,9.52-11.36,9.52-2.91,0-4.91-1.84-4.91-4.45h.01ZM937.72,349.62c1.38,0,2.3,1.07,2.3,2.61,0,1.99-1.69,3.68-3.53,3.68-1.38,0-2.3-1.23-2.3-2.61,0-1.99,1.69-3.68,3.53-3.68Z"/>
      <path class="st2" d="M954.01,367.9c2.15-5.37,2.45-6.9,1.23-6.9-2.45,0-8.3,8.14-11.67,17.65h-5.06c2.76-8.45,5.83-18.27,6.6-20.57h4.91c-.46,1.07-1.23,3.53-2.15,6.29,2.91-3.99,6.14-6.6,9.37-6.6,3.68,0,4.91,2.91,3.22,7.36-2.91,7.21-3.22,9.68-1.38,9.68,1.99,0,4.45-3.07,6.9-6.9l2.76,1.53c-3.53,5.83-7.84,9.52-11.67,9.37-4.6,0-5.52-4.14-2.91-10.9h-.15.01Z"/>
      <path class="st2" d="M977.8,368.05c2.15-5.37,2.45-6.9,1.23-6.9-2.45,0-8.3,8.14-11.67,17.65h-5.06c2.76-8.45,5.83-18.27,6.6-20.57h4.91c-.46,1.07-1.23,3.53-2.15,6.29,2.91-3.99,6.14-6.6,9.37-6.6,3.68,0,4.91,2.91,3.22,7.36-2.91,7.21-3.22,9.68-1.38,9.68,1.99,0,4.45-3.07,6.9-6.9l2.76,1.53c-3.53,5.83-7.84,9.52-11.67,9.37-4.6,0-5.52-4.14-2.91-10.9h-.15.01Z"/>
      <path class="st2" d="M989.01,371.58c0-8.3,5.98-13.51,10.44-13.51,3.37,0,5.37,1.84,5.37,4.76,0,1.99-1.07,4.14-2.91,5.83-2.45,2.15-5.22,3.07-7.52,3.37.46,1.99,1.69,2.91,3.68,2.91,3.53,0,7.68-2.15,10.6-6.75l2.76,1.53c-4.6,7.06-9.52,9.52-14.59,9.37-4.91,0-7.84-2.76-7.84-7.52h0ZM999.44,366.37c1.23-1.23,1.99-2.76,1.99-3.99,0-.77-.61-1.38-1.38-1.38-2.61,0-4.91,4.3-5.52,7.99,1.69-.31,3.53-1.23,4.91-2.61h0Z"/>
      <path class="st2" d="M1015.88,374.34c0-2.61.92-6.44,3.53-11.98-1.69-.15-3.07-.46-4.3-1.07-.77,3.22-2.45,6.44-3.53,8.3-.61,1.07-1.84,2.76-3.22,3.68l-1.99-1.69c.92-1.07,1.53-2.15,2.3-3.68,1.69-3.07,2.3-6.14,2.3-10.6l4.91-1.07c1.38,1.84,4.14,3.22,7.99,3.22h2.3c-3.99,7.52-5.06,12.28-5.06,13.97,0,.92.46,1.69,1.38,1.69,1.69,0,4.3-3.07,6.75-6.9l2.76,1.53c-3.99,6.44-7.36,9.52-10.6,9.52s-5.52-1.99-5.52-4.91h0Z"/>
    </g>
    <rect class="st1" x="557.9" y="361.14" width="163.05" height="5.06"/>
  </g>
</svg>