<?xml version="1.0" encoding="utf-8"?>
<!-- Generator: Adobe Illustrator 27.8.1, SVG Export Plug-In . SVG Version: 6.00 Build 0)  -->
<svg version="1.1" id="Layer_1" xmlns="http://www.w3.org/2000/svg" xmlns:xlink="http://www.w3.org/1999/xlink" x="0px" y="0px"
	 viewBox="0 0 500 500" style="enable-background:new 0 0 500 500;" xml:space="preserve">
<style type="text/css">
	.st0{clip-path:url(#SVGID_00000031895491655611732690000012879171254012374961_);fill:#e22103;}
</style>
<g>
	<defs>
		<rect id="SVGID_1_" x="45.1" y="97.9" width="409.9" height="304.3"/>
	</defs>
	<clipPath id="SVGID_00000083052876528498863670000015223337601015429541_">
		<use xlink:href="#SVGID_1_"  style="overflow:visible;"/>
	</clipPath>
	<path style="clip-path:url(#SVGID_00000083052876528498863670000015223337601015429541_);fill:#e22103;" d="M222,278h56v-56h-56
		V278z M284.4,290.8h-68.8c-3.5,0-6.4-2.9-6.4-6.4v-68.8c0-3.5,2.9-6.4,6.4-6.4h68.8c3.5,0,6.4,2.9,6.4,6.4v68.8
		C290.8,287.9,287.9,290.8,284.4,290.8"/>
	<path style="clip-path:url(#SVGID_00000083052876528498863670000015223337601015429541_);fill:#e22103;" d="M386.2,278h56v-56h-56
		V278z M448.5,290.8h-68.8c-3.5,0-6.4-2.9-6.4-6.4v-68.8c0-3.5,2.9-6.4,6.4-6.4h68.8c3.5,0,6.4,2.9,6.4,6.4v68.8
		C454.9,287.9,452.1,290.8,448.5,290.8"/>
	<path style="clip-path:url(#SVGID_00000083052876528498863670000015223337601015429541_);fill:#e22103;" d="M57.8,278h56v-56h-56
		V278z M120.2,290.8H51.4c-3.5,0-6.4-2.9-6.4-6.4v-68.8c0-3.5,2.9-6.4,6.4-6.4h68.8c3.5,0,6.4,2.9,6.4,6.4v68.8
		C126.6,287.9,123.8,290.8,120.2,290.8"/>
	<path style="clip-path:url(#SVGID_00000083052876528498863670000015223337601015429541_);fill:#e22103;" d="M386.2,166.6h56v-56
		h-56V166.6z M448.5,179.4h-68.8c-3.5,0-6.4-2.9-6.4-6.4v-68.8c0-3.5,2.9-6.4,6.4-6.4h68.8c3.5,0,6.4,2.9,6.4,6.4V173
		C454.9,176.5,452.1,179.4,448.5,179.4"/>
	<path style="clip-path:url(#SVGID_00000083052876528498863670000015223337601015429541_);fill:#e22103;" d="M57.8,166.6h56v-56h-56
		V166.6z M120.2,179.4H51.4c-3.5,0-6.4-2.9-6.4-6.4v-68.8c0-3.5,2.9-6.4,6.4-6.4h68.8c3.5,0,6.4,2.9,6.4,6.4V173
		C126.6,176.5,123.8,179.4,120.2,179.4"/>
	<path style="clip-path:url(#SVGID_00000083052876528498863670000015223337601015429541_);fill:#e22103;" d="M386.2,389.4h56v-56
		h-56V389.4z M448.5,402.1h-68.8c-3.5,0-6.4-2.9-6.4-6.4V327c0-3.5,2.9-6.4,6.4-6.4h68.8c3.5,0,6.4,2.9,6.4,6.4v68.8
		C454.9,399.3,452.1,402.1,448.5,402.1"/>
	<path style="clip-path:url(#SVGID_00000083052876528498863670000015223337601015429541_);fill:#e22103;" d="M57.8,389.4h56v-56h-56
		V389.4z M120.2,402.1H51.4c-3.5,0-6.4-2.9-6.4-6.4V327c0-3.5,2.9-6.4,6.4-6.4h68.8c3.5,0,6.4,2.9,6.4,6.4v68.8
		C126.6,399.3,123.8,402.1,120.2,402.1"/>
	<path style="clip-path:url(#SVGID_00000083052876528498863670000015223337601015429541_);fill:#e22103;" d="M379.8,256.4h-95.4
		c-3.5,0-6.4-2.9-6.4-6.4c0-3.5,2.9-6.4,6.4-6.4h95.4c3.5,0,6.4,2.9,6.4,6.4C386.2,253.5,383.3,256.4,379.8,256.4"/>
	<path style="clip-path:url(#SVGID_00000083052876528498863670000015223337601015429541_);fill:#e22103;" d="M215.6,256.4h-95.4
		c-3.5,0-6.4-2.9-6.4-6.4c0-3.5,2.9-6.4,6.4-6.4h95.4c3.5,0,6.4,2.9,6.4,6.4C222,253.5,219.1,256.4,215.6,256.4"/>
	<path style="clip-path:url(#SVGID_00000083052876528498863670000015223337601015429541_);fill:#e22103;" d="M332.1,367.7
		c-3.5,0-6.4-2.9-6.4-6.4V138.6c0-3.5,2.9-6.4,6.4-6.4s6.4,2.9,6.4,6.4v222.7C338.5,364.9,335.6,367.7,332.1,367.7"/>
	<path style="clip-path:url(#SVGID_00000083052876528498863670000015223337601015429541_);fill:#e22103;" d="M167.9,367.7
		c-3.5,0-6.4-2.9-6.4-6.4V138.6c0-3.5,2.9-6.4,6.4-6.4s6.4,2.9,6.4,6.4v222.7C174.3,364.9,171.4,367.7,167.9,367.7"/>
	<path style="clip-path:url(#SVGID_00000083052876528498863670000015223337601015429541_);fill:#e22103;" d="M379.8,145h-47.7
		c-3.5,0-6.4-2.9-6.4-6.4c0-3.5,2.9-6.4,6.4-6.4h47.7c3.5,0,6.4,2.9,6.4,6.4C386.2,142.2,383.3,145,379.8,145"/>
	<path style="clip-path:url(#SVGID_00000083052876528498863670000015223337601015429541_);fill:#e22103;" d="M167.9,145h-47.7
		c-3.5,0-6.4-2.9-6.4-6.4c0-3.5,2.9-6.4,6.4-6.4h47.7c3.5,0,6.4,2.9,6.4,6.4C174.3,142.2,171.4,145,167.9,145"/>
	<path style="clip-path:url(#SVGID_00000083052876528498863670000015223337601015429541_);fill:#e22103;" d="M379.8,367.7h-47.7
		c-3.5,0-6.4-2.9-6.4-6.4c0-3.5,2.9-6.4,6.4-6.4h47.7c3.5,0,6.4,2.9,6.4,6.4C386.2,364.9,383.3,367.7,379.8,367.7"/>
	<path style="clip-path:url(#SVGID_00000083052876528498863670000015223337601015429541_);fill:#e22103;" d="M167.9,367.7h-47.7
		c-3.5,0-6.4-2.9-6.4-6.4c0-3.5,2.9-6.4,6.4-6.4h47.7c3.5,0,6.4,2.9,6.4,6.4C174.3,364.9,171.4,367.7,167.9,367.7"/>
</g>
</svg>
