<?xml version="1.0" encoding="utf-8"?>
<!-- Generator: Adobe Illustrator 27.8.1, SVG Export Plug-In . SVG Version: 6.00 Build 0)  -->
<svg version="1.1" id="Layer_1" xmlns="http://www.w3.org/2000/svg" xmlns:xlink="http://www.w3.org/1999/xlink" x="0px" y="0px"
	 viewBox="0 0 500 500" style="enable-background:new 0 0 500 500;" xml:space="preserve">
<style type="text/css">
	.st0{clip-path:url(#SVGID_00000127033613439318425590000014118463207609499049_);fill:#e22103;}
</style>
<g>
	<defs>
		<rect id="SVGID_1_" x="19.9" y="25.8" width="460.2" height="448.5"/>
	</defs>
	<clipPath id="SVGID_00000118378432680446254560000011086704451174651039_">
		<use xlink:href="#SVGID_1_"  style="overflow:visible;"/>
	</clipPath>
	<path style="clip-path:url(#SVGID_00000118378432680446254560000011086704451174651039_);fill:#e22103;" d="M407,382.8
		c-4.3,0-7.8-3.5-7.8-7.8c0-4.4-4.2-8.5-10.3-9.8c-4.2-0.9-6.8-5.1-5.9-9.3c0.9-4.2,5.1-6.8,9.3-5.9c13.2,3,22.5,13.2,22.5,25
		C414.8,379.3,411.3,382.8,407,382.8"/>
	<path style="clip-path:url(#SVGID_00000118378432680446254560000011086704451174651039_);fill:#e22103;" d="M384.6,437
		c-16.6,0-30.1-11.6-30.1-25.8c0-4.3,3.5-7.8,7.8-7.8c4.3,0,7.8,3.5,7.8,7.8c0,5.6,6.7,10.3,14.5,10.3c7.9,0,14.5-4.7,14.5-10.3
		c0-3.8-3.2-7.4-8.1-9.2c-4.1-1.5-6.2-5.9-4.7-10c1.5-4,5.9-6.1,10-4.7c11.2,4,18.4,13.4,18.4,23.8C414.8,425.4,401.2,437,384.6,437
		"/>
	<path style="clip-path:url(#SVGID_00000118378432680446254560000011086704451174651039_);fill:#e22103;" d="M384.6,448.6
		c-4.3,0-7.8-3.5-7.8-7.8v-11.6c0-4.3,3.5-7.8,7.8-7.8c4.3,0,7.8,3.5,7.8,7.8v11.6C392.4,445.1,388.9,448.6,384.6,448.6"/>
	<path style="clip-path:url(#SVGID_00000118378432680446254560000011086704451174651039_);fill:#e22103;" d="M384.6,474.2
		c-44.8,0-81.2-36.4-81.2-81.2c0-4.3,3.5-7.8,7.8-7.8c4.3,0,7.8,3.5,7.8,7.8c0,36.2,29.4,65.6,65.6,65.6c36.2,0,65.6-29.4,65.6-65.6
		c0-36.2-29.4-65.6-65.6-65.6c-4.9,0-9.8,0.6-14.5,1.6c-4.2,0.9-8.4-1.7-9.3-5.9c-0.9-4.2,1.7-8.4,5.9-9.3c5.8-1.3,11.9-2,17.9-2
		c44.8,0,81.2,36.4,81.2,81.2S429.4,474.2,384.6,474.2"/>
	<path style="clip-path:url(#SVGID_00000118378432680446254560000011086704451174651039_);fill:#e22103;" d="M446.6,361.6
		c-1,0-2.1-0.2-3.1-0.6c-4-1.7-5.8-6.3-4.1-10.2c6-14.1,22.4-53.6,25.2-66.7c-0.2-13.7-67.9-93.2-85.2-108.4
		c-11.7-8.5-161.6-49.7-253.4-73.6c-4.2-1.1-6.7-5.3-5.6-9.5c1.1-4.2,5.4-6.7,9.5-5.6c57.4,15,245.9,64.8,259.7,77
		c5,4.5,95.3,99.3,90.1,123.4c-3.7,17.3-25.2,67.4-26.1,69.6C452.5,359.9,449.7,361.6,446.6,361.6"/>
	<path style="clip-path:url(#SVGID_00000118378432680446254560000011086704451174651039_);fill:#e22103;" d="M370.1,400.9
		c-0.9,0-1.8-0.1-2.6-0.3c-0.8-0.2-3-0.8-134.4-43.4c-26.2-8.5-48.4-26.2-62.4-49.9c-39.3-66.5-46.6-76.1-47.9-77.4
		c-3-2.6-21.2-7.4-38.9-10.2c-4.3-0.7-7.2-4.7-6.5-8.9c0.7-4.3,4.6-7.2,8.9-6.5c11.5,1.8,39,6.8,47.1,14.2
		c1.8,1.7,6.2,5.7,50.7,80.9c12.1,20.4,31.2,35.7,53.8,43.1c87,28.2,118.5,38.4,129,41.7c0.7-3.6,1.5-10.8,0.8-24.7
		c-0.7-16.3-45.3-36.7-59.9-43.4c-9-4.1-11.4-5.3-13.2-7.2c-3.2-3.5-14.8-19.5-12.1-34.7c1-5.5,4.2-13.2,14.3-18.3
		c1.7-0.9,3.5-1.8,5.4-2.8c20.9-11,52.4-27.7,93.3,3.6c44.8,34.3,26.2,72.6,26,73c-1.9,3.8-6.6,5.4-10.5,3.4
		c-3.8-1.9-5.4-6.6-3.5-10.4c0.6-1.2,12.6-27.4-21.6-53.6c-32.9-25.2-56.1-13-76.5-2.2c-1.9,1-3.8,2-5.6,2.9c-4.7,2.4-5.7,5.2-6,7.1
		c-1.3,7.4,5.2,17.8,7.7,20.9c1.5,0.8,5.3,2.6,8.7,4.1c23.7,10.9,67.9,31.1,69,56.9c1.3,29.4-2.8,36.7-6.9,40
		C374.5,400.2,372.3,400.9,370.1,400.9"/>
	<path style="clip-path:url(#SVGID_00000118378432680446254560000011086704451174651039_);fill:#e22103;" d="M75.5,244.1
		c-0.6,0-1.3-0.1-1.9-0.2l-47.8-12.1c-4.2-1-6.7-5.3-5.6-9.5c1.1-4.2,5.3-6.7,9.5-5.6l41,10.4l61.7-170.5L82.7,41
		c-4.1-1.3-6.4-5.6-5.1-9.7s5.7-6.4,9.8-5.1L144.7,44c2,0.6,3.7,2.1,4.7,4s1.1,4.1,0.3,6.1L82.8,239
		C81.7,242.1,78.7,244.1,75.5,244.1"/>
</g>
</svg>
