<?xml version="1.0" encoding="utf-8"?>
<!-- Generator: Adobe Illustrator 27.8.1, SVG Export Plug-In . SVG Version: 6.00 Build 0)  -->
<svg version="1.1" id="Layer_1" xmlns="http://www.w3.org/2000/svg" xmlns:xlink="http://www.w3.org/1999/xlink" x="0px" y="0px"
	 viewBox="0 0 500 500" style="enable-background:new 0 0 500 500;" xml:space="preserve">
<style type="text/css">
	.st0{clip-path:url(#SVGID_00000053536131519594223270000000467439082987504793_);fill:#e22103;}
</style>
<g>
	<defs>
		<rect id="SVGID_1_" x="17.1" y="101.5" width="465.9" height="297.1"/>
	</defs>
	<clipPath id="SVGID_00000036215228902641484900000014110466193711610532_">
		<use xlink:href="#SVGID_1_"  style="overflow:visible;"/>
	</clipPath>
	<path style="clip-path:url(#SVGID_00000036215228902641484900000014110466193711610532_);fill:#e22103;" d="M33.3,248.4l25.8,14.9
		l74.9-129.7l-25.7-14.9L33.3,248.4z M61.6,279.5c-1.2,0-2.3-0.3-3.4-0.9l-37.7-21.7c-3.3-1.9-4.4-6.1-2.5-9.4l81.7-141.6
		c0.9-1.6,2.4-2.7,4.2-3.2c1.8-0.5,3.6-0.3,5.2,0.7l37.7,21.7c3.3,1.9,4.4,6.1,2.5,9.4L67.5,276.1C66.3,278.3,64,279.5,61.6,279.5"
		/>
	<path style="clip-path:url(#SVGID_00000036215228902641484900000014110466193711610532_);fill:#e22103;" d="M366.1,132.6
		l74.9,129.7l25.7-14.9l-74.9-129.7L366.1,132.6z M438.4,278.5c-0.6,0-1.2-0.1-1.8-0.2c-1.8-0.5-3.3-1.6-4.2-3.2l-81.7-141.6
		c-1.9-3.3-0.8-7.5,2.5-9.4l37.7-21.7c1.6-0.9,3.5-1.2,5.2-0.7c1.8,0.5,3.3,1.6,4.2,3.2L482,246.5c1.9,3.3,0.8,7.5-2.5,9.4
		l-37.6,21.7C440.8,278.2,439.6,278.5,438.4,278.5"/>
	<path style="clip-path:url(#SVGID_00000036215228902641484900000014110466193711610532_);fill:#e22103;" d="M125.5,280
		c-3.5,0-6.9,1.5-9.2,4.4l-6.2,7.7c-4.1,5.1-3.3,12.6,1.8,16.7c2.5,2,5.6,2.9,8.7,2.6c3.1-0.3,6-1.9,8-4.3l6.2-7.7
		c4.1-5.1,3.3-12.6-1.7-16.7C130.8,280.9,128.2,280,125.5,280 M119.2,325.2c-5.8,0-11.5-2-16.1-5.7c-11-8.9-12.7-25-3.8-36l6.2-7.7
		c8.9-11,25-12.7,36-3.8s12.7,25.1,3.8,36l-6.2,7.7c-4.3,5.3-10.4,8.6-17.2,9.4C121.1,325.2,120.2,325.2,119.2,325.2"/>
	<path style="clip-path:url(#SVGID_00000036215228902641484900000014110466193711610532_);fill:#e22103;" d="M174.8,279
		c-0.4,0-0.8,0-1.3,0.1c-3.2,0.3-6,1.9-8,4.3l-27.3,33.7c-4.1,5.1-3.3,12.6,1.8,16.7c2.5,2,5.6,3,8.7,2.6c3.2-0.3,6-1.9,8-4.3
		l27.3-33.7c4.1-5.1,3.3-12.6-1.8-16.7C180.1,279.9,177.5,279,174.8,279 M147.5,350.2c-5.8,0-11.5-2-16.1-5.7
		c-11-8.9-12.7-25-3.8-36l27.3-33.7c4.3-5.3,10.4-8.7,17.2-9.4c6.8-0.7,13.5,1.3,18.8,5.6c11,8.9,12.7,25,3.8,36l-27.3,33.7
		c-4.3,5.3-10.4,8.6-17.2,9.4C149.3,350.1,148.4,350.2,147.5,350.2"/>
	<path style="clip-path:url(#SVGID_00000036215228902641484900000014110466193711610532_);fill:#e22103;" d="M167.6,359.2
		c5.1,4.1,12.6,3.3,16.7-1.8l22.2-27.4c4.1-5.1,3.3-12.6-1.8-16.7c-5.1-4.1-12.6-3.4-16.7,1.8l-22.2,27.4
		C161.8,347.6,162.5,355.1,167.6,359.2 M175.1,375.6c-5.7,0-11.4-1.9-16.1-5.7h0c-11-8.9-12.7-25.1-3.8-36l22.2-27.4
		c8.9-11,25.1-12.7,36-3.8c11,8.9,12.7,25.1,3.8,36L195,366.1C190,372.3,182.6,375.6,175.1,375.6"/>
	<path style="clip-path:url(#SVGID_00000036215228902641484900000014110466193711610532_);fill:#e22103;" d="M197.5,382.1
		c2.5,2,5.5,2.9,8.7,2.6c3.1-0.3,6-1.9,8-4.3l15.4-19c4.1-5.1,3.3-12.6-1.8-16.7c-2.5-2-5.5-2.9-8.7-2.6c-3.1,0.3-6,1.9-8,4.3
		l-15.4,19C191.6,370.5,192.4,378,197.5,382.1 M204.9,398.5c-5.9,0-11.5-2-16.1-5.7c-11-8.9-12.7-25-3.8-36l15.4-19
		c4.3-5.3,10.4-8.6,17.2-9.4c6.8-0.7,13.5,1.3,18.8,5.6c11,8.9,12.7,25,3.8,36l-15.4,19c-4.3,5.3-10.4,8.6-17.2,9.4
		C206.7,398.5,205.8,398.5,204.9,398.5"/>
	<path style="clip-path:url(#SVGID_00000036215228902641484900000014110466193711610532_);fill:#e22103;" d="M271.3,393.7
		c-17.5,0-35.5-7.1-46.7-13.7c-3.3-1.9-4.3-6.1-2.4-9.4c1.9-3.3,6.1-4.4,9.4-2.4c2,1.2,49.2,28.5,68.1-3.3c1.9-3.3,6.2-4.3,9.4-2.4
		c3.2,2,4.3,6.2,2.4,9.4C301.9,388.2,286.8,393.7,271.3,393.7"/>
	<path style="clip-path:url(#SVGID_00000036215228902641484900000014110466193711610532_);fill:#e22103;" d="M315.3,376.4
		c-19.2,0-50.6-18.6-64.9-27.7c-3.2-2.1-4.1-6.3-2.1-9.5c2-3.2,6.3-4.1,9.5-2.1c26.2,16.7,54.2,28.5,59.8,25.3
		c10.8-6.2,10.8-9.2,10.8-17.8c0-3.8,3.1-6.9,6.9-6.9c3.8,0,6.9,3.1,6.9,6.9c0,11.8-1.2,20.2-17.7,29.7
		C322,375.8,318.9,376.4,315.3,376.4"/>
	<path style="clip-path:url(#SVGID_00000036215228902641484900000014110466193711610532_);fill:#e22103;" d="M109.2,289.1
		c-2,0-4-0.9-5.4-2.6L73,247.9c-2.4-3-1.9-7.3,1.1-9.7c3-2.4,7.3-1.9,9.7,1.1l30.9,38.6c2.4,3,1.9,7.3-1.1,9.6
		C112.2,288.7,110.7,289.1,109.2,289.1"/>
	<path style="clip-path:url(#SVGID_00000036215228902641484900000014110466193711610532_);fill:#e22103;" d="M340.6,349.8
		c-27.4,0-65.7-32.7-70.5-36.9c-2.9-2.5-3.1-6.9-0.7-9.7c2.5-2.9,6.9-3.1,9.7-0.7c19.7,17.2,53.4,38.7,66.8,32.6
		c6.3-2.9,7.6-13,7.6-21.1c0-3.8,3.1-6.9,6.9-6.9c3.8,0,6.9,3.1,6.9,6.9c0,17.6-5.3,28.8-15.7,33.6
		C348.2,349.1,344.5,349.8,340.6,349.8"/>
	<path style="clip-path:url(#SVGID_00000036215228902641484900000014110466193711610532_);fill:#e22103;" d="M375.2,323.8
		c-26.6,0-71.3-33.9-86.5-46c-3-2.4-3.4-6.7-1.1-9.6c2.4-3,6.7-3.5,9.7-1.1c32.6,26.1,74.3,49.7,82.1,42c0.2-0.2,0.4-0.3,0.6-0.5
		c0,0,7.2-6,6.5-13.9c-0.6-7.6-8-15.6-21.3-23.3c-39.3-22.7-101-63.4-114.3-72.3l-14.5,3.8c-5,6.9-21.7,26.8-49.5,31.3
		c-6.7,1.1-13.2-1.3-17.5-6.5c-4.4-5.2-5.6-12.1-3.4-18.5c4.9-14.1,15.8-35.9,39.8-59.9c1.6-1.4,30.9-26.1,106-8.6
		c6.6,1.4,12.5,3,17.8,4.4c15.5,4.2,24,6.5,35.6-0.3c3.3-1.9,7.5-0.8,9.4,2.5c1.9,3.3,0.8,7.5-2.5,9.4c-16.6,9.6-29.6,6.1-46.1,1.6
		c-5-1.4-10.8-2.9-17.1-4.2c-67.6-15.7-93.5,5-93.7,5.3c-21.8,21.8-31.8,41.7-36.2,54.4c-0.9,2.6,0.4,4.4,0.9,5.1
		c0.6,0.7,2.2,2.2,4.7,1.8c27-4.4,41.6-27.2,41.7-27.4c0.9-1.5,2.4-2.5,4.1-3l20-5.2c1.9-0.5,3.9-0.2,5.5,0.9
		c0.7,0.5,72.4,48.3,116.1,73.5c17.7,10.3,27.2,21.8,28.2,34.2c1.1,14-9.3,23.6-11.3,25.4C385.4,322.4,380.7,323.8,375.2,323.8"/>
	<path style="clip-path:url(#SVGID_00000036215228902641484900000014110466193711610532_);fill:#e22103;" d="M387.9,287.9
		c-2.4,0-4.7-1.2-6-3.4c-1.9-3.3-0.8-7.5,2.5-9.4c2.1-1.4,24.4-18.7,37.9-29.2c3-2.3,7.3-1.8,9.6,1.2c2.3,3,1.8,7.3-1.2,9.6
		c-16.9,13.1-37.4,29-39.5,30.3C390.3,287.6,389.1,287.9,387.9,287.9"/>
	<path style="clip-path:url(#SVGID_00000036215228902641484900000014110466193711610532_);fill:#e22103;" d="M193.2,175.4
		c-29.3,0-61.1-22.9-62.5-24c-3.1-2.2-3.7-6.5-1.5-9.6c2.3-3.1,6.5-3.7,9.6-1.5c0.3,0.2,32.9,23.7,58.2,21.1
		c3.9-0.3,7.2,2.4,7.5,6.2c0.4,3.8-2.4,7.1-6.2,7.5C196.7,175.3,195,175.4,193.2,175.4"/>
</g>
</svg>
