<?xml version="1.0" encoding="utf-8"?>
<!-- Generator: Adobe Illustrator 27.8.1, SVG Export Plug-In . SVG Version: 6.00 Build 0)  -->
<svg version="1.1" id="Layer_1" xmlns="http://www.w3.org/2000/svg" xmlns:xlink="http://www.w3.org/1999/xlink" x="0px" y="0px"
	 viewBox="0 0 500 500" style="enable-background:new 0 0 500 500;" xml:space="preserve">
<style type="text/css">
	.st0{clip-path:url(#SVGID_00000153681178723223801740000007106887870309442213_);fill:#e22103;}
</style>
<g>
	<defs>
		<rect id="SVGID_1_" x="83.6" y="32" width="332.8" height="436"/>
	</defs>
	<clipPath id="SVGID_00000051368750134356376910000014862957365191515052_">
		<use xlink:href="#SVGID_1_"  style="overflow:visible;"/>
	</clipPath>
	<path style="clip-path:url(#SVGID_00000051368750134356376910000014862957365191515052_);fill:#e22103;" d="M372.5,247.4
		c-3.6,0-6.5-2.9-6.5-6.5v-60.7c0-74.6-60.7-135.3-135.3-135.3c-53,0-101.4,31.3-123.4,79.8c-1.5,3.2-5.3,4.7-8.5,3.2
		c-3.2-1.5-4.7-5.3-3.2-8.6C119.7,66.3,172.7,32,230.7,32C312.4,32,379,98.5,379,180.3v60.7C379,244.5,376.1,247.4,372.5,247.4"/>
	<path style="clip-path:url(#SVGID_00000051368750134356376910000014862957365191515052_);fill:#e22103;" d="M364.4,279.5
		c-6.1,0-11.3-1.7-15.5-5c-7.1-5.6-10.8-15.5-10.9-29.4c-0.1-18.9-1.6-64.2-1.7-64.6c0-58.4-47.4-105.8-105.6-105.8
		c-46.6,0-88.2,31.2-101.3,75.9c-0.2,0.5-0.4,1-0.7,1.5c-0.9,1.5-8.9,14.5-20.9,14.2c-7.2-0.3-13.4-5.3-18.3-15.1
		c-1.6-3.2-0.3-7.1,2.9-8.7c3.2-1.6,7.1-0.3,8.6,2.9c2.5,4.9,5.1,7.9,7.2,7.9c2.7-0.1,6.8-4,8.9-7.2c15-49.7,61.5-84.3,113.5-84.3
		c65.3,0,118.5,53.1,118.5,118.5c0,0.2,1.5,45.7,1.7,64.8c0.1,9.6,2.1,16.3,6,19.4c3.1,2.4,7.8,2.9,14.2,1.4c3.5-0.8,7,1.3,7.8,4.8
		c0.8,3.5-1.4,6.9-4.8,7.8C370.6,279.1,367.4,279.5,364.4,279.5"/>
	<path style="clip-path:url(#SVGID_00000051368750134356376910000014862957365191515052_);fill:#e22103;" d="M336.9,300.1
		c-1.8,0-3.5-0.7-4.8-2.1c-30-32.9-25.7-114.6-25.5-118.1c0-41.4-34-75.5-75.8-75.5c-28.7,0-53.3,13.5-64,35.2
		c-1.4,2.7-2.8,5.8-4.3,9c-9.5,20.3-21.3,45.6-41.4,51.8c-9.2,2.9-18.9,1.3-28.9-4.5c-3.1-1.8-4.1-5.8-2.3-8.8
		c1.8-3.1,5.8-4.1,8.8-2.3c6.8,4,12.9,5.1,18.6,3.4c14.7-4.6,25.6-27.9,33.6-45c1.5-3.3,3-6.4,4.4-9.2
		c12.9-26.1,41.9-42.3,75.6-42.3c48.9,0,88.7,39.8,88.7,88.7c-0.1,1.2-4.1,80.2,22.2,109c2.4,2.6,2.2,6.7-0.4,9.1
		C340,299.5,338.4,300.1,336.9,300.1"/>
	<path style="clip-path:url(#SVGID_00000051368750134356376910000014862957365191515052_);fill:#e22103;" d="M300.8,291.1
		c-1.7,0-3.4-0.7-4.6-2c-20.1-20.8-19.5-100-19.4-109c0-25.3-20.6-45.9-46-45.9c-25.7,0-38.6,12.5-47.8,46.3
		c0,0.1-2.7,14.1-14.5,27.4c-9.2,10.3-34.8,33.3-74.4,24c-3.5-0.8-5.6-4.3-4.8-7.8c0.8-3.5,4.3-5.6,7.8-4.8
		c32.9,7.7,54.2-11.5,61.9-20c9.3-10.5,11.6-21.6,11.6-21.7c10.8-39.6,28.8-56.3,60.4-56.3c32.5,0,58.9,26.4,58.9,59
		c-0.5,31.9,3.4,87.1,15.8,99.9c2.5,2.6,2.4,6.6-0.1,9.1C304,290.5,302.4,291.1,300.8,291.1"/>
	<path style="clip-path:url(#SVGID_00000051368750134356376910000014862957365191515052_);fill:#e22103;" d="M102.6,269.9
		c-2.4,0-4.9-0.1-7.4-0.2c-3.6-0.1-6.3-3.2-6.2-6.7c0.1-3.6,3-6.3,6.7-6.2c93.1,3.9,105-70.7,105.9-77c0.2-15.9,13.2-28.7,29.2-28.7
		c16.1,0,29.2,13.1,29.2,29.2c0,3.6-2.9,6.5-6.5,6.5c-3.6,0-6.5-2.9-6.5-6.5c0-9-7.3-16.3-16.3-16.3c-9,0-16.3,7.3-16.3,16.3
		c0,0.2,0,0.5,0,0.7C214.3,181.9,203.1,269.9,102.6,269.9"/>
	<path style="clip-path:url(#SVGID_00000051368750134356376910000014862957365191515052_);fill:#e22103;" d="M95.4,304.5
		c-3.3,0-6.1-2.5-6.4-5.8c-0.4-3.5,2.2-6.7,5.8-7.1c53.1-5.3,90.7-21.4,111.9-47.9c20.7-25.8,17.7-52.3,17.6-52.6
		c-0.4-3.5,2.1-6.8,5.6-7.2c3.5-0.4,6.8,2.1,7.2,5.6c0.2,1.3,3.6,32.2-20.4,62.2c-23.5,29.3-64.1,47-120.7,52.6
		C95.8,304.5,95.6,304.5,95.4,304.5"/>
	<path style="clip-path:url(#SVGID_00000051368750134356376910000014862957365191515052_);fill:#e22103;" d="M303.8,326.9
		c-1,0-2-0.2-3-0.7C274,312.1,258,292.8,257.3,292c-2.3-2.7-1.9-6.8,0.9-9.1c2.8-2.3,6.8-1.9,9.1,0.9c0.1,0.2,15.1,18.2,39.5,31
		c3.2,1.7,4.4,5.6,2.7,8.7C308.3,325.7,306.1,326.9,303.8,326.9"/>
	<path style="clip-path:url(#SVGID_00000051368750134356376910000014862957365191515052_);fill:#e22103;" d="M90,336.9
		c-3.3,0-6.1-2.5-6.4-5.9c-0.3-3.5,2.3-6.7,5.9-7c1.1-0.1,112.4-9.9,141.9-60.9c1.8-3.1,5.7-4.2,8.8-2.4c3.1,1.8,4.2,5.7,2.4,8.8
		c-32.8,56.9-147.2,66.9-152,67.3C90.4,336.9,90.2,336.9,90,336.9"/>
	<path style="clip-path:url(#SVGID_00000051368750134356376910000014862957365191515052_);fill:#e22103;" d="M262.3,263.4
		c-1.9,0-3.8-0.9-5.1-2.5c-16.7-21.5-6.3-55.2-5.9-56.6c1.1-3.4,4.7-5.3,8.1-4.2c3.4,1.1,5.3,4.7,4.2,8.1
		c-0.1,0.3-8.8,28.7,3.7,44.8c2.2,2.8,1.7,6.9-1.1,9.1C265.1,262.9,263.7,263.4,262.3,263.4"/>
	<path style="clip-path:url(#SVGID_00000051368750134356376910000014862957365191515052_);fill:#e22103;" d="M98.8,371.1
		c-3.2,0-6-2.4-6.4-5.7c-0.4-3.5,2.1-6.8,5.6-7.2c0.9-0.1,94.6-11.9,138.4-54c2.5-2.5,6.6-2.4,9.1,0.2c2.5,2.6,2.4,6.7-0.2,9.1
		c-46.9,45.1-141.7,57-145.8,57.5C99.3,371.1,99.1,371.1,98.8,371.1"/>
	<path style="clip-path:url(#SVGID_00000051368750134356376910000014862957365191515052_);fill:#e22103;" d="M293.1,360.7
		c-1,0-2-0.2-3-0.7c-23.3-12.3-36.1-26.6-36.6-27.3c-2.4-2.7-2.1-6.7,0.6-9.1c2.7-2.3,6.7-2.1,9.1,0.6c0.1,0.1,11.9,13.2,33,24.4
		c3.2,1.7,4.4,5.6,2.7,8.7C297.6,359.4,295.4,360.7,293.1,360.7"/>
	<path style="clip-path:url(#SVGID_00000051368750134356376910000014862957365191515052_);fill:#e22103;" d="M115,400.9
		c-3.2,0-5.9-2.4-6.4-5.6c-0.5-3.5,2-6.8,5.5-7.3c0.9-0.1,88.7-12.2,115-41.7c1.2-1.4,2.9-2.1,4.8-2.2c1.7,0,3.6,0.7,4.8,2.1
		c0.2,0.2,18,19.3,48.1,34.4c3.2,1.6,4.5,5.5,2.9,8.7c-1.6,3.2-5.5,4.5-8.7,2.9c-23.3-11.7-39.5-25.4-47.1-32.5
		c-33.3,29.5-114.5,40.7-118.1,41.1C115.6,400.9,115.3,400.9,115,400.9"/>
	<path style="clip-path:url(#SVGID_00000051368750134356376910000014862957365191515052_);fill:#e22103;" d="M136.6,428
		c-3,0-5.7-2.1-6.3-5.2c-0.7-3.5,1.6-6.9,5.1-7.6c20.2-4,76.1-17.1,91.5-30c2.1-1.8,5.1-2,7.4-0.6c0.3,0.2,28.2,16.7,51.6,27.6
		c3.2,1.5,4.6,5.3,3.1,8.6c-1.5,3.2-5.3,4.6-8.6,3.1c-19.1-8.9-40.5-21.1-49-26c-24.8,16.4-90.6,29.5-93.5,30
		C137.4,427.9,137,428,136.6,428"/>
	<path style="clip-path:url(#SVGID_00000051368750134356376910000014862957365191515052_);fill:#e22103;" d="M283,451.9
		c-1,0-2-0.2-2.9-0.7c-61.4-30.9-100.3-4.2-102-3.1c-2.9,2.1-6.9,1.4-9-1.5c-2-2.9-1.4-6.9,1.5-9c1.9-1.3,46.6-32.5,115.3,2.1
		c3.2,1.6,4.5,5.5,2.9,8.7C287.7,450.6,285.4,451.9,283,451.9"/>
	<path style="clip-path:url(#SVGID_00000051368750134356376910000014862957365191515052_);fill:#e22103;" d="M302.4,358.1
		c-6.6,0-12,5.4-12,12v72.9c0,6.6,5.4,12,12,12h89.1c6.6,0,12-5.4,12-12v-72.9c0-6.6-5.4-12-12-12H302.4z M391.5,468h-89.1
		c-13.7,0-24.9-11.2-24.9-24.9v-72.9c0-13.7,11.2-24.9,24.9-24.9h89.1c13.7,0,24.9,11.2,24.9,24.9v72.9
		C416.4,456.8,405.2,468,391.5,468"/>
	<path style="clip-path:url(#SVGID_00000051368750134356376910000014862957365191515052_);fill:#e22103;" d="M390.1,358.1
		c-3.6,0-6.5-2.9-6.5-6.5v-14.9c0-20.2-16.5-36.7-36.7-36.7c-20.3,0-36.7,16.5-36.7,36.7v14.9c0,3.6-2.9,6.5-6.5,6.5
		s-6.5-2.9-6.5-6.5v-14.9c0-27.4,22.3-49.6,49.6-49.6c27.3,0,49.6,22.3,49.6,49.6v14.9C396.6,355.2,393.7,358.1,390.1,358.1"/>
	<path style="clip-path:url(#SVGID_00000051368750134356376910000014862957365191515052_);fill:#e22103;" d="M346.9,388.8
		c-5.6,0-10.1,4.5-10.1,10.1c0,3.9,2.2,7.4,5.7,9.1c2.2,1.1,3.6,3.3,3.6,5.8v9.8c0,0.9,1.6,0.9,1.6,0v-9.8c0-2.5,1.4-4.7,3.6-5.8
		c3.5-1.7,5.7-5.2,5.7-9.1C357,393.3,352.5,388.8,346.9,388.8 M346.9,437.3c-7.6,0-13.7-6.1-13.7-13.7v-6.2
		c-5.8-4.3-9.3-11.1-9.3-18.5c0-12.7,10.3-23,23-23c12.7,0,23,10.3,23,23c0,7.4-3.5,14.2-9.3,18.5v6.2
		C360.7,431.1,354.5,437.3,346.9,437.3"/>
</g>
</svg>
