<?xml version="1.0" encoding="utf-8"?>
<!-- Generator: Adobe Illustrator 27.8.1, SVG Export Plug-In . SVG Version: 6.00 Build 0)  -->
<svg version="1.1" id="Layer_1" xmlns="http://www.w3.org/2000/svg" xmlns:xlink="http://www.w3.org/1999/xlink" x="0px" y="0px"
	 viewBox="0 0 500 500" style="enable-background:new 0 0 500 500;" xml:space="preserve">
<style type="text/css">
	.st0{clip-path:url(#SVGID_00000032648365179101178390000006226518482701151665_);fill:#e22103;}
</style>
<g>
	<defs>
		<rect id="SVGID_1_" x="35.3" y="29" width="429.5" height="442"/>
	</defs>
	<clipPath id="SVGID_00000004529784866962056460000010909264768129483427_">
		<use xlink:href="#SVGID_1_"  style="overflow:visible;"/>
	</clipPath>
	<path style="clip-path:url(#SVGID_00000004529784866962056460000010909264768129483427_);fill:#e22103;" d="M129.9,127.1
		c2.9,1.9,15.7,8.8,48.7,8.8c32.6,0,45.5-6.8,48.7-8.8L260,60.5l-39,15.6c-2.5,1-5.4,0.5-7.4-1.2l-35.1-29.1L143.5,75
		c-2.1,1.7-4.9,2.2-7.4,1.2L97,60.5L129.9,127.1z M178.5,150.5c-44.9,0-58.4-12.1-59.7-13.5c-0.6-0.6-1.1-1.2-1.4-1.9l-42-85.2
		c-1.4-2.7-0.9-6,1.2-8.3c2.1-2.2,5.3-3,8.1-1.8l52.8,21.1l36.4-30.1c2.7-2.3,6.7-2.3,9.4,0l36.4,30.1l52.8-21.1
		c2.8-1.1,6-0.4,8.1,1.8c2.1,2.2,2.6,5.5,1.2,8.3l-42,85.2c-0.3,0.7-0.8,1.4-1.4,1.9C236.9,138.4,223.5,150.5,178.5,150.5"/>
	<path style="clip-path:url(#SVGID_00000004529784866962056460000010909264768129483427_);fill:#e22103;" d="M178.5,188.6
		c-35.5,0-66.9-16.7-68.2-17.4c-3.1-1.7-4.6-5.3-3.5-8.7l10.2-32.9c1.2-3.9,5.3-6.1,9.2-4.8c3.9,1.2,6,5.3,4.8,9.2l-8.4,26.9
		c10,4.4,32.2,13,55.9,13c23.7,0,45.9-8.6,55.9-13L226,134c-1.2-3.9,1-8,4.8-9.2c3.9-1.2,8,1,9.2,4.8l10.2,32.9c1,3.4-0.4,7-3.6,8.7
		C245.5,171.9,214.1,188.6,178.5,188.6"/>
	<path style="clip-path:url(#SVGID_00000004529784866962056460000010909264768129483427_);fill:#e22103;" d="M292.5,253.3
		c-2.8,0-5.5-1.6-6.7-4.3c-20.3-45-47.9-79.2-48.2-79.5c-2.6-3.1-2.1-7.8,1-10.3c3.2-2.6,7.8-2.1,10.4,1c1.2,1.4,29.2,36,50.2,82.8
		c1.7,3.7,0,8.1-3.7,9.7C294.6,253.1,293.5,253.3,292.5,253.3"/>
	<path style="clip-path:url(#SVGID_00000004529784866962056460000010909264768129483427_);fill:#e22103;" d="M176,471
		c-10.3,0-43.8-2.6-86.9-33.3c-30.2-21.4-47.9-49.7-52.6-84c-12.2-89.7,68.2-189.4,71.6-193.6c2.6-3.1,7.2-3.6,10.4-1
		c3.1,2.6,3.6,7.2,1,10.4c-0.8,1-79.7,99-68.4,182.4c4.1,30.1,19.7,55,46.5,74c46.2,32.8,80,30.5,80.3,30.5c0.4,0,0.9,0,1.3,0
		c0.3,0,34,2.3,80.3-30.5c14.1-10,25.3-21.8,33.1-35c2.1-3.5,6.6-4.7,10.1-2.6c3.5,2.1,4.6,6.6,2.6,10.1
		c-8.9,14.9-21.4,28.2-37.2,39.4c-48,34-84,33.5-89.5,33.2C178,471,177.1,471,176,471"/>
	<path style="clip-path:url(#SVGID_00000004529784866962056460000010909264768129483427_);fill:#e22103;" d="M195.6,381.6h-34.2
		c-16.8,0-30.5-13.7-30.5-30.5c0-4.1,3.3-7.4,7.4-7.4c4.1,0,7.4,3.3,7.4,7.4c0,8.7,7.1,15.8,15.8,15.8h34.2
		c8.7,0,15.8-7.1,15.8-15.8v-13.7c0-8.7-7.1-15.8-15.8-15.8h-34.2c-16.8,0-30.5-13.7-30.5-30.5v-13.7c0-16.8,13.7-30.5,30.5-30.5
		h34.2c16.8,0,30.5,13.7,30.5,30.5c0,4.1-3.3,7.4-7.4,7.4c-4.1,0-7.4-3.3-7.4-7.4c0-8.7-7.1-15.8-15.8-15.8h-34.2
		c-8.7,0-15.8,7.1-15.8,15.8V291c0,8.7,7.1,15.8,15.8,15.8h34.2c16.8,0,30.5,13.7,30.5,30.5V351
		C226.2,367.9,212.5,381.6,195.6,381.6"/>
	<path style="clip-path:url(#SVGID_00000004529784866962056460000010909264768129483427_);fill:#e22103;" d="M178.5,261.5
		c-4.1,0-7.4-3.3-7.4-7.4v-23.6c0-4.1,3.3-7.3,7.4-7.3c4.1,0,7.4,3.3,7.4,7.3v23.6C185.9,258.2,182.6,261.5,178.5,261.5"/>
	<path style="clip-path:url(#SVGID_00000004529784866962056460000010909264768129483427_);fill:#e22103;" d="M178.5,405.2
		c-4.1,0-7.4-3.3-7.4-7.4v-23.6c0-4.1,3.3-7.3,7.4-7.3c4.1,0,7.4,3.3,7.4,7.3v23.6C185.9,401.9,182.6,405.2,178.5,405.2"/>
	<path style="clip-path:url(#SVGID_00000004529784866962056460000010909264768129483427_);fill:#e22103;" d="M342,391.3
		c-1.7,0-3.4-0.6-4.8-1.8l-78-66.8c-1.6-1.4-2.6-3.4-2.6-5.6c0-2.1,0.9-4.2,2.6-5.6l78-66.8c2.2-1.9,5.3-2.3,7.9-1.1
		c2.6,1.2,4.3,3.8,4.3,6.7v22.4h105.5c4.1,0,7.3,3.3,7.3,7.4s-3.3,7.4-7.3,7.4H342c-4.1,0-7.4-3.3-7.4-7.4v-13.8l-59.3,50.8
		l59.3,50.8v-13.8c0-4.1,3.3-7.4,7.4-7.4h115.4c4.1,0,7.3,3.3,7.3,7.4c0,4.1-3.3,7.3-7.3,7.3H349.3V384c0,2.9-1.7,5.5-4.3,6.7
		C344.1,391.1,343,391.3,342,391.3"/>
</g>
</svg>
