<?xml version="1.0" encoding="utf-8"?>
<!-- Generator: Adobe Illustrator 27.8.1, SVG Export Plug-In . SVG Version: 6.00 Build 0)  -->
<svg version="1.1" id="Layer_1" xmlns="http://www.w3.org/2000/svg" xmlns:xlink="http://www.w3.org/1999/xlink" x="0px" y="0px"
	 viewBox="0 0 500 500" style="enable-background:new 0 0 500 500;" xml:space="preserve">
<style type="text/css">
	.st0{clip-path:url(#SVGID_00000047760571634768212270000010722564440130767248_);fill:#e22103;}
</style>
<g>
	<defs>
		<rect id="SVGID_1_" x="88.2" y="22" width="323.5" height="456"/>
	</defs>
	<clipPath id="SVGID_00000136389570042282696850000017102319963092362390_">
		<use xlink:href="#SVGID_1_"  style="overflow:visible;"/>
	</clipPath>
	<path style="clip-path:url(#SVGID_00000136389570042282696850000017102319963092362390_);fill:#e22103;" d="M112.9,436.7
		c-3.7,0-6.7-3-6.7-6.7V270.1c0-1.8,0.7-3.5,2-4.7l61.4-61.4c2.6-2.6,6.9-2.6,9.5,0c2.6,2.6,2.6,6.8,0,9.4l-59.5,59.5V430
		C119.6,433.7,116.6,436.7,112.9,436.7"/>
	<path style="clip-path:url(#SVGID_00000136389570042282696850000017102319963092362390_);fill:#e22103;" d="M200.8,388.2
		c-1.7,0-3.4-0.6-4.7-2c-2.6-2.6-2.6-6.9,0-9.5c8.4-8.4,12.4-16.8,11.9-25.2c-0.7-12.5-11.3-21.4-11.4-21.5c-1.5-1.2-2.4-3-2.5-4.9
		c-0.1-1.9,0.6-3.7,2-5.1l36.5-36.5c19-19,10.2-39.2,4-48.8l-75.8,75.8c-2.6,2.6-6.8,2.6-9.4,0c-2.6-2.6-2.6-6.8,0-9.5l81.3-81.3
		c1.3-1.3,3.1-2,4.9-2c1.8,0,3.6,0.8,4.8,2.2c12.1,13.1,27.6,45.2-0.2,72.9l-31.8,31.8c4.6,5.3,10.5,14.4,11.1,25.9
		c0.7,12.3-4.7,24.2-15.8,35.3C204.2,387.5,202.5,388.2,200.8,388.2"/>
	<path style="clip-path:url(#SVGID_00000136389570042282696850000017102319963092362390_);fill:#e22103;" d="M250.9,436.7
		c-3.7,0-6.7-3-6.7-6.7v-28.7c0-3.5,2.7-6.5,6.3-6.7c2.9-0.2,28-2.7,28-27.6v-32.2c0-3.7,3-6.7,6.7-6.7c3.7,0,6.7,3,6.7,6.7v32.2
		c0,26.3-19.9,37.1-34.3,40.1V430C257.6,433.7,254.6,436.7,250.9,436.7"/>
	<path style="clip-path:url(#SVGID_00000136389570042282696850000017102319963092362390_);fill:#e22103;" d="M268,478
		c-3.7,0-6.7-3-6.7-6.7v-34.6H101.6v34.6c0,3.7-3,6.7-6.7,6.7c-3.7,0-6.7-3-6.7-6.7V430c0-3.7,3-6.7,6.7-6.7H268
		c3.7,0,6.7,3,6.7,6.7v41.3C274.7,475,271.7,478,268,478"/>
	<path style="clip-path:url(#SVGID_00000136389570042282696850000017102319963092362390_);fill:#e22103;" d="M327.6,340H233
		c-3.7,0-6.7-3-6.7-6.7c0-3.7,3-6.7,6.7-6.7h94.6c5.6,0,10.2-4.6,10.2-10.2v-53.2c0-3.7,3-6.7,6.7-6.7c3.7,0,6.7,3,6.7,6.7v53.2
		C351.3,329.4,340.7,340,327.6,340"/>
	<path style="clip-path:url(#SVGID_00000136389570042282696850000017102319963092362390_);fill:#e22103;" d="M174.3,267.6
		c-3.7,0-6.7-3-6.7-6.7V45.7c0-13,10.6-23.6,23.6-23.6h136.4c13,0,23.6,10.6,23.6,23.6v50.5c0,3.7-3,6.7-6.7,6.7
		c-3.7,0-6.7-3-6.7-6.7V45.7c0-5.7-4.6-10.3-10.2-10.3H191.2c-5.6,0-10.2,4.6-10.2,10.3v215.2C181,264.6,178,267.6,174.3,267.6"/>
	<path style="clip-path:url(#SVGID_00000136389570042282696850000017102319963092362390_);fill:#e22103;" d="M344.6,294.7h-71.1
		c-3.7,0-6.7-3-6.7-6.7c0-3.7,3-6.7,6.7-6.7h64.4v-18.1c0-3.7,3-6.7,6.7-6.7s6.7,3,6.7,6.7V288C351.3,291.7,348.3,294.7,344.6,294.7
		"/>
	<path style="clip-path:url(#SVGID_00000136389570042282696850000017102319963092362390_);fill:#e22103;" d="M174.3,268.6
		c-3.7,0-6.7-3-6.7-6.7V60.6c0-3.7,3-6.7,6.7-6.7h170.3c3.7,0,6.7,3,6.7,6.7v35.5c0,3.7-3,6.7-6.7,6.7c-3.7,0-6.7-3-6.7-6.7V67.3
		H181v194.6C181,265.6,178,268.6,174.3,268.6"/>
	<path style="clip-path:url(#SVGID_00000136389570042282696850000017102319963092362390_);fill:#e22103;" d="M264.2,50.8h-9.6
		c-3.7,0-6.7-3-6.7-6.7s3-6.7,6.7-6.7h9.6c3.7,0,6.7,3,6.7,6.7S267.9,50.8,264.2,50.8"/>
	<path style="clip-path:url(#SVGID_00000136389570042282696850000017102319963092362390_);fill:#e22103;" d="M274.8,317.3h-30.7
		c-3.7,0-6.7-3-6.7-6.7c0-3.7,3-6.7,6.7-6.7h30.7c3.7,0,6.7,3,6.7,6.7C281.5,314.3,278.5,317.3,274.8,317.3"/>
	<path style="clip-path:url(#SVGID_00000136389570042282696850000017102319963092362390_);fill:#e22103;" d="M386.5,242.5H266.8
		c-3.7,0-6.7-3-6.7-6.7c0-3.7,3-6.7,6.7-6.7h119.7c6.5,0,11.8-5.3,11.8-11.8v-80.8c0-6.5-5.3-11.8-11.8-11.8H243
		c-6.5,0-11.8,5.3-11.8,11.8v68c0,3.7-3,6.7-6.7,6.7c-3.7,0-6.7-3-6.7-6.7v-68c0-13.9,11.3-25.2,25.2-25.2h143.5
		c13.9,0,25.2,11.3,25.2,25.2v80.8C411.8,231.2,400.4,242.5,386.5,242.5"/>
	<path style="clip-path:url(#SVGID_00000136389570042282696850000017102319963092362390_);fill:#e22103;" d="M405.1,221.3H259.4
		c-3.7,0-6.7-3-6.7-6.7c0-3.7,3-6.7,6.7-6.7h138.9V201H231.2v3.5c0,3.7-3,6.7-6.7,6.7c-3.7,0-6.7-3-6.7-6.7v-10.1
		c0-3.7,3-6.7,6.7-6.7h180.6c3.7,0,6.7,3,6.7,6.7v20.3C411.8,218.4,408.8,221.3,405.1,221.3"/>
	<path style="clip-path:url(#SVGID_00000136389570042282696850000017102319963092362390_);fill:#e22103;" d="M259.3,155.9
		c-2.2,0-4.1,1.9-4.1,4.1c0,2.2,1.9,4.1,4.1,4.1h19.6c2.2,0,4.1-1.9,4.1-4.1c0-2.2-1.9-4.1-4.1-4.1H259.3z M278.8,177.5h-19.6
		c-9.6,0-17.5-7.8-17.5-17.5c0-9.6,7.8-17.4,17.5-17.4h19.6c9.6,0,17.5,7.8,17.5,17.4C296.3,169.6,288.4,177.5,278.8,177.5"/>
	<path style="clip-path:url(#SVGID_00000136389570042282696850000017102319963092362390_);fill:#e22103;" d="M384.5,145.8h-78.1
		c-3.7,0-6.7-3-6.7-6.7c0-3.7,3-6.7,6.7-6.7h78.1c3.7,0,6.7,3,6.7,6.7C391.2,142.8,388.2,145.8,384.5,145.8"/>
	<path style="clip-path:url(#SVGID_00000136389570042282696850000017102319963092362390_);fill:#e22103;" d="M371.2,167.5h-51.5
		c-3.7,0-6.7-3-6.7-6.7c0-3.7,3-6.7,6.7-6.7h51.5c3.7,0,6.7,3,6.7,6.7C377.9,164.5,374.9,167.5,371.2,167.5"/>
</g>
</svg>
