<?xml version="1.0" encoding="utf-8"?>
<!-- Generator: Adobe Illustrator 27.8.1, SVG Export Plug-In . SVG Version: 6.00 Build 0)  -->
<svg version="1.1" id="Layer_1" xmlns="http://www.w3.org/2000/svg" xmlns:xlink="http://www.w3.org/1999/xlink" x="0px" y="0px"
	 viewBox="0 0 500 500" style="enable-background:new 0 0 500 500;" xml:space="preserve">
<style type="text/css">
	.st0{clip-path:url(#SVGID_00000122693681035537838870000000954764160066093448_);fill:#e22103;}
	.st1{fill:#e22103;}
	.st2{clip-path:url(#SVGID_00000031206008062595401460000016153487454293002171_);fill:#e22103;}
	.st3{clip-path:url(#SVGID_00000090253742919890351780000006725082305037301891_);fill:#e22103;}
</style>
<g>
	<g>
		<defs>
			<rect id="SVGID_1_" x="76.9" y="13.7" width="346.2" height="472.9"/>
		</defs>
		<clipPath id="SVGID_00000044869674088606581520000010169268130575954859_">
			<use xlink:href="#SVGID_1_"  style="overflow:visible;"/>
		</clipPath>
		<path style="clip-path:url(#SVGID_00000044869674088606581520000010169268130575954859_);fill:#e22103;" d="M268.3,200.9
			c-2.1,0-3.8-1.8-3.8-4.1c0-2.3-2.1-4.4-5-5.2c-2.1-0.5-3.3-2.7-2.9-4.9c0.5-2.2,2.5-3.6,4.6-3.1c6.5,1.6,11,6.9,11,13.1
			C272.1,199,270.4,200.9,268.3,200.9"/>
		<path style="clip-path:url(#SVGID_00000044869674088606581520000010169268130575954859_);fill:#e22103;" d="M257.3,229.3
			c-8.1,0-14.7-6.1-14.7-13.6c0-2.2,1.7-4.1,3.8-4.1c2.1,0,3.8,1.8,3.8,4.1c0,2.9,3.3,5.4,7.1,5.4c3.9,0,7.1-2.5,7.1-5.4
			c0-2-1.5-3.9-4-4.8c-2-0.8-3-3.1-2.3-5.2c0.7-2.1,2.9-3.2,4.9-2.5c5.5,2.1,9,7,9,12.5C272.1,223.2,265.4,229.3,257.3,229.3"/>
		<path style="clip-path:url(#SVGID_00000044869674088606581520000010169268130575954859_);fill:#e22103;" d="M257.3,235.3
			c-2.1,0-3.8-1.8-3.8-4.1v-6.1c0-2.2,1.7-4.1,3.8-4.1c2.1,0,3.8,1.8,3.8,4.1v6.1C261.1,233.5,259.4,235.3,257.3,235.3"/>
		<path style="clip-path:url(#SVGID_00000044869674088606581520000010169268130575954859_);fill:#e22103;" d="M257.3,248.8
			c-21.9,0-39.7-19.1-39.7-42.6c0-2.2,1.7-4.1,3.8-4.1c2.1,0,3.8,1.8,3.8,4.1c0,19,14.4,34.4,32.1,34.4c17.7,0,32.1-15.4,32.1-34.4
			c0-18.9-14.4-34.4-32.1-34.4c-2.4,0-4.8,0.3-7.1,0.9c-2,0.5-4.1-0.9-4.6-3.1c-0.5-2.2,0.8-4.4,2.9-4.9c2.8-0.7,5.8-1,8.8-1
			c21.9,0,39.7,19.1,39.7,42.5S279.2,248.8,257.3,248.8"/>
		<path style="clip-path:url(#SVGID_00000044869674088606581520000010169268130575954859_);fill:#e22103;" d="M287.7,189.8
			c-0.5,0-1-0.1-1.5-0.3c-1.9-0.9-2.8-3.3-2-5.4c3-7.4,10.9-28.1,12.3-34.9c-0.1-7.2-33.2-48.9-41.7-56.8c-5.7-4.5-79.1-26-124-38.6
			c-2-0.6-3.3-2.8-2.7-5c0.5-2.2,2.6-3.5,4.7-2.9c28.1,7.8,120.3,33.9,127.1,40.4c2.5,2.3,46.6,52,44.1,64.7
			c-1.8,9-12.3,35.3-12.8,36.5C290.6,188.9,289.1,189.8,287.7,189.8"/>
		<path style="clip-path:url(#SVGID_00000044869674088606581520000010169268130575954859_);fill:#e22103;" d="M250.2,210.4
			c-0.4,0-0.9-0.1-1.3-0.2c-0.4-0.1-1.5-0.4-65.8-22.8c-12.8-4.5-23.7-13.7-30.6-26.2c-19.2-34.8-22.8-39.9-23.4-40.6
			c-1.5-1.4-10.4-3.9-19-5.3c-2.1-0.4-3.5-2.4-3.2-4.7c0.3-2.2,2.3-3.8,4.4-3.4c5.6,1,19.1,3.6,23,7.4c0.9,0.9,3,3,24.8,42.4
			c5.9,10.7,15.3,18.7,26.3,22.6c42.6,14.8,58,20.1,63.2,21.9c0.3-1.9,0.7-5.7,0.4-12.9c-0.4-8.5-22.2-19.3-29.3-22.8
			c-4.4-2.2-5.6-2.8-6.5-3.7c-1.6-1.8-7.2-10.2-5.9-18.2c0.5-2.9,2.1-6.9,7-9.6c0.9-0.5,1.7-1,2.6-1.5c10.2-5.8,25.6-14.5,45.7,1.9
			c21.9,18,12.8,38,12.8,38.3c-1,2-3.2,2.8-5.1,1.8c-1.9-1-2.6-3.4-1.7-5.4c0.3-0.7,6.2-14.4-10.6-28.1
			c-16.1-13.2-27.5-6.8-37.4-1.1c-0.9,0.5-1.9,1.1-2.7,1.5c-2.3,1.2-2.8,2.7-3,3.7c-0.6,3.9,2.6,9.3,3.8,10.9
			c0.7,0.4,2.6,1.4,4.3,2.2c11.6,5.7,33.2,16.3,33.8,29.8c0.6,15.4-1.4,19.2-3.4,21C252.4,210,251.3,210.4,250.2,210.4"/>
		<path style="clip-path:url(#SVGID_00000044869674088606581520000010169268130575954859_);fill:#e22103;" d="M106,128.2
			c-0.3,0-0.6,0-0.9-0.1l-23.4-6.4c-2-0.5-3.3-2.8-2.7-5c0.5-2.2,2.6-3.5,4.6-3l20.1,5.4l30.2-89.4l-24.3-8.1c-2-0.7-3.1-3-2.5-5.1
			c0.6-2.2,2.8-3.3,4.8-2.7l28.1,9.4c1,0.3,1.8,1.1,2.3,2.1c0.5,1,0.5,2.2,0.2,3.2l-32.8,96.9C109.1,127.1,107.6,128.2,106,128.2"/>
	</g>
	<path class="st1" d="M89.6,458h320.9v15H89.6V458z M396.4,444.5v6.8h-12.6v-6.8h-29.6v6.8h-12.7v-6.8h-24.4v6.8h-12.7v-6.8h-29.6
		v6.8h-12.7v-6.8h-24.4v6.8h-12.7v-6.8h-29.6v6.8h-12.7v-6.8h-24.4v6.8h-12.7v-6.8h-29.6v6.8h-12.6v-6.8H76.9v42.1h346.2v-42.1
		H396.4z"/>
	<path class="st1" d="M89.6,274.7h320.9v15H89.6V274.7z M392.7,261.2l1.9,2l-8.9,9.6l-10.8-11.6H125.2l-10.8,11.6l-9-9.6l1.9-2H76.9
		v42.1h26.7v-6.8h12.7v6.8h29.6v-6.8h12.6v6.8h24.4v-6.8h12.6v6.8h29.6v-6.8h12.7v6.8h24.4v-6.8h12.7v6.8h29.6v-6.8h12.7v6.8h24.4
		v-6.8h12.7v6.8h29.6v-6.8h12.6v6.8h26.7v-42.1H392.7z"/>
	<g>
		<defs>
			<rect id="SVGID_00000090260983717588117150000007298651943863793850_" x="76.9" y="13.7" width="346.2" height="472.9"/>
		</defs>
		<clipPath id="SVGID_00000105401714497767861600000001881881455469494694_">
			<use xlink:href="#SVGID_00000090260983717588117150000007298651943863793850_"  style="overflow:visible;"/>
		</clipPath>
		<path style="clip-path:url(#SVGID_00000105401714497767861600000001881881455469494694_);fill:#e22103;" d="M173.6,209.4
			c-2.8-3.5-5.3-7.1-7.7-11l-58.6,62.8h17.9L173.6,209.4z"/>
		<path style="clip-path:url(#SVGID_00000105401714497767861600000001881881455469494694_);fill:#e22103;" d="M374.8,261.2h17.9
			l-63.3-67.9c-2.1,4.1-4.6,7.9-7.2,11.5L374.8,261.2z"/>
	</g>
	<polygon class="st1" points="374.8,261.2 385.6,272.8 394.5,263.1 392.7,261.2 	"/>
	<polygon class="st1" points="107.3,261.2 105.4,263.1 114.4,272.8 125.2,261.2 	"/>
	<polygon class="st1" points="127.5,320.6 127.5,327.4 134.6,327.4 134.6,320.6 147.2,320.6 147.2,327.4 158.5,327.4 158.5,303.3 
		145.8,303.3 145.8,313.9 116.3,313.9 116.3,303.3 103.6,303.3 103.6,327.4 114.8,327.4 114.8,320.6 	"/>
	<rect x="145.8" y="296.5" class="st1" width="12.6" height="6.8"/>
	<rect x="103.6" y="296.5" class="st1" width="12.6" height="6.8"/>
	<polygon class="st1" points="116.3,433.9 145.8,433.9 145.8,444.5 158.5,444.5 158.5,420.3 147.2,420.3 147.2,427.1 134.6,427.1 
		134.6,420.3 127.5,420.3 127.5,427.1 114.8,427.1 114.8,420.3 103.6,420.3 103.6,444.5 116.3,444.5 	"/>
	<rect x="145.8" y="444.5" class="st1" width="12.6" height="6.8"/>
	<rect x="103.6" y="444.5" class="st1" width="12.6" height="6.8"/>
	<polygon class="st1" points="194.1,327.4 194.1,320.7 206.8,320.7 206.8,327.4 213.9,327.4 213.9,320.7 226.5,320.7 226.5,327.4 
		237.8,327.4 237.8,303.3 225.1,303.3 225.1,313.9 195.6,313.9 195.6,303.3 182.9,303.3 182.9,327.4 	"/>
	<rect x="182.9" y="296.5" class="st1" width="12.6" height="6.8"/>
	<rect x="225.1" y="296.5" class="st1" width="12.7" height="6.8"/>
	<polygon class="st1" points="226.5,420.3 226.5,427.1 213.9,427.1 213.9,420.3 206.8,420.3 206.8,427.1 194.1,427.1 194.1,420.3 
		182.9,420.3 182.9,444.5 195.6,444.5 195.6,433.9 225.1,433.9 225.1,444.5 237.8,444.5 237.8,420.3 	"/>
	<rect x="182.9" y="444.5" class="st1" width="12.6" height="6.8"/>
	<rect x="225.1" y="444.5" class="st1" width="12.7" height="6.8"/>
	<polygon class="st1" points="273.5,327.4 273.5,320.7 286.1,320.7 286.1,327.4 293.2,327.4 293.2,320.7 305.8,320.7 305.8,327.4 
		317.1,327.4 317.1,303.3 304.4,303.3 304.4,313.9 274.8,313.9 274.8,303.3 262.2,303.3 262.2,327.4 	"/>
	<rect x="304.4" y="296.5" class="st1" width="12.7" height="6.8"/>
	<rect x="262.2" y="296.5" class="st1" width="12.7" height="6.8"/>
	<polygon class="st1" points="305.8,420.3 305.8,427.1 293.2,427.1 293.2,420.3 286.1,420.3 286.1,427.1 273.4,427.1 273.4,420.3 
		262.2,420.3 262.2,444.5 274.9,444.5 274.9,433.9 304.4,433.9 304.4,444.5 317.1,444.5 317.1,420.3 	"/>
	<rect x="262.2" y="444.5" class="st1" width="12.7" height="6.8"/>
	<rect x="304.4" y="444.5" class="st1" width="12.7" height="6.8"/>
	<rect x="134.6" y="327.4" class="st1" width="12.7" height="92.9"/>
	<rect x="134.6" y="320.6" class="st1" width="12.7" height="6.8"/>
	<rect x="134.6" y="420.3" class="st1" width="12.7" height="6.8"/>
	<rect x="114.8" y="327.4" class="st1" width="12.7" height="92.9"/>
	<rect x="114.8" y="320.6" class="st1" width="12.7" height="6.8"/>
	<rect x="114.8" y="420.3" class="st1" width="12.7" height="6.8"/>
	<rect x="213.8" y="327.4" class="st1" width="12.7" height="92.9"/>
	<rect x="213.8" y="320.6" class="st1" width="12.7" height="6.8"/>
	<rect x="213.8" y="420.3" class="st1" width="12.7" height="6.8"/>
	<rect x="194.1" y="327.4" class="st1" width="12.7" height="92.9"/>
	<rect x="194.1" y="320.6" class="st1" width="12.7" height="6.8"/>
	<rect x="194.1" y="420.3" class="st1" width="12.7" height="6.8"/>
	<rect x="293.2" y="327.4" class="st1" width="12.7" height="92.9"/>
	<rect x="293.2" y="320.6" class="st1" width="12.7" height="6.8"/>
	<rect x="293.2" y="420.3" class="st1" width="12.7" height="6.8"/>
	<rect x="273.5" y="327.4" class="st1" width="12.6" height="92.9"/>
	<rect x="273.5" y="320.6" class="st1" width="12.6" height="6.8"/>
	<rect x="273.5" y="420.3" class="st1" width="12.6" height="6.8"/>
	<rect x="372.5" y="327.4" class="st1" width="12.7" height="92.9"/>
	<rect x="352.8" y="327.4" class="st1" width="12.7" height="92.9"/>
	<polygon class="st1" points="383.7,313.9 354.2,313.9 354.2,303.3 341.5,303.3 341.5,327.4 352.8,327.4 352.8,320.6 365.4,320.6 
		365.4,327.4 372.5,327.4 372.5,320.6 385.2,320.6 385.2,327.4 396.4,327.4 396.4,303.3 383.7,303.3 	"/>
	<rect x="383.7" y="296.5" class="st1" width="12.6" height="6.8"/>
	<rect x="341.5" y="296.5" class="st1" width="12.7" height="6.8"/>
	<rect x="372.5" y="320.6" class="st1" width="12.7" height="6.8"/>
	<rect x="352.8" y="320.6" class="st1" width="12.7" height="6.8"/>
	<polygon class="st1" points="372.5,427.1 372.5,420.3 365.4,420.3 365.4,427.1 352.8,427.1 352.8,420.3 341.5,420.3 341.5,444.4 
		354.2,444.4 354.2,433.9 383.7,433.9 383.7,444.4 396.4,444.4 396.4,420.3 385.1,420.3 385.1,427.1 	"/>
	<rect x="341.5" y="444.5" class="st1" width="12.7" height="6.8"/>
	<rect x="383.7" y="444.5" class="st1" width="12.6" height="6.8"/>
	<rect x="372.5" y="420.3" class="st1" width="12.7" height="6.8"/>
	<rect x="352.8" y="420.3" class="st1" width="12.7" height="6.8"/>
	<g>
		<defs>
			<rect id="SVGID_00000064316207717953225280000011034200861830099860_" x="76.9" y="13.7" width="346.2" height="472.9"/>
		</defs>
		<clipPath id="SVGID_00000155113941941975161480000012764706019655205525_">
			<use xlink:href="#SVGID_00000064316207717953225280000011034200861830099860_"  style="overflow:visible;"/>
		</clipPath>
		<path style="clip-path:url(#SVGID_00000155113941941975161480000012764706019655205525_);fill:#e22103;" d="M250,245.5
			c1.1,0,2.2-0.2,3.3-0.4c-1.5,0.1-3.1,0.2-4.6,0.2C249.1,245.4,249.5,245.5,250,245.5"/>
	</g>
</g>
</svg>
