<?xml version="1.0" encoding="utf-8"?>
<!-- Generator: Adobe Illustrator 27.8.1, SVG Export Plug-In . SVG Version: 6.00 Build 0)  -->
<svg version="1.1" id="Layer_1" xmlns="http://www.w3.org/2000/svg" xmlns:xlink="http://www.w3.org/1999/xlink" x="0px" y="0px"
	 viewBox="0 0 500 500" style="enable-background:new 0 0 500 500;" xml:space="preserve">
<style type="text/css">
	.st0{clip-path:url(#SVGID_00000138547862276830672980000006009022318735153310_);fill:#e22103;}
</style>
<g>
	<defs>
		<rect id="SVGID_1_" x="106.8" y="30.3" width="287.2" height="438.7"/>
	</defs>
	<clipPath id="SVGID_00000047767055029965695700000002756583749294115213_">
		<use xlink:href="#SVGID_1_"  style="overflow:visible;"/>
	</clipPath>
	<path style="clip-path:url(#SVGID_00000047767055029965695700000002756583749294115213_);fill:#e22103;" d="M130.5,429.2
		c-3.6,0-6.4-2.9-6.4-6.4V269c0-1.7,0.7-3.3,1.9-4.5l59.1-59.1c2.5-2.5,6.6-2.5,9.1,0c2.5,2.5,2.5,6.6,0,9.1L137,271.7v151.1
		C137,426.4,134.1,429.2,130.5,429.2"/>
	<path style="clip-path:url(#SVGID_00000047767055029965695700000002756583749294115213_);fill:#e22103;" d="M215.1,382.6
		c-1.7,0-3.3-0.6-4.5-1.9c-2.5-2.5-2.5-6.6,0-9.1c8-8,11.9-16.1,11.5-24.1c-0.6-12.1-10.9-20.7-11-20.8c-1.4-1.2-2.3-2.9-2.4-4.7
		c-0.1-1.8,0.6-3.6,1.9-4.9l35.1-35.1c18.3-18.3,9.9-37.7,3.9-46.9l-73,73c-2.5,2.5-6.6,2.5-9.1,0c-2.5-2.5-2.5-6.6,0-9.1l78.2-78.2
		c1.2-1.2,2.9-1.9,4.7-1.9c1.8,0,3.4,0.8,4.6,2.1c11.6,12.6,26.6,43.4-0.2,70.2l-30.6,30.6c4.4,5.1,10.1,13.8,10.7,25
		c0.6,11.8-4.5,23.2-15.2,34C218.4,382,216.7,382.6,215.1,382.6"/>
	<path style="clip-path:url(#SVGID_00000047767055029965695700000002756583749294115213_);fill:#e22103;" d="M263.3,429.2
		c-3.6,0-6.4-2.9-6.4-6.4v-27.6c0-3.4,2.6-6.2,6.1-6.4c2.7-0.2,27-2.6,27-26.6v-30.9c0-3.6,2.9-6.4,6.4-6.4c3.6,0,6.4,2.9,6.4,6.4
		v30.9c0,25.3-19.1,35.7-33,38.6v22C269.7,426.4,266.8,429.2,263.3,429.2"/>
	<path style="clip-path:url(#SVGID_00000047767055029965695700000002756583749294115213_);fill:#e22103;" d="M279.8,469
		c-3.6,0-6.4-2.9-6.4-6.4v-33.3H119.7v33.3c0,3.6-2.9,6.4-6.4,6.4c-3.6,0-6.4-2.9-6.4-6.4v-39.7c0-3.6,2.9-6.4,6.4-6.4h166.5
		c3.6,0,6.4,2.9,6.4,6.4v39.7C286.2,466.1,283.3,469,279.8,469"/>
	<path style="clip-path:url(#SVGID_00000047767055029965695700000002756583749294115213_);fill:#e22103;" d="M337.1,336.3h-91
		c-3.6,0-6.4-2.9-6.4-6.4c0-3.6,2.9-6.4,6.4-6.4h91c5.4,0,9.9-4.4,9.9-9.9v-51.1c0-3.6,2.9-6.4,6.4-6.4c3.6,0,6.4,2.9,6.4,6.4v51.1
		C359.9,326.1,349.6,336.3,337.1,336.3"/>
	<path style="clip-path:url(#SVGID_00000047767055029965695700000002756583749294115213_);fill:#e22103;" d="M189.6,266.5
		c-3.6,0-6.4-2.9-6.4-6.4V53c0-12.5,10.2-22.7,22.7-22.7h131.3c12.5,0,22.7,10.2,22.7,22.7v48.6c0,3.6-2.9,6.4-6.4,6.4
		c-3.6,0-6.4-2.9-6.4-6.4V53c0-5.4-4.4-9.9-9.9-9.9H205.9c-5.4,0-9.9,4.4-9.9,9.9v207.1C196,263.7,193.1,266.5,189.6,266.5"/>
	<path style="clip-path:url(#SVGID_00000047767055029965695700000002756583749294115213_);fill:#e22103;" d="M353.4,292.7H285
		c-3.6,0-6.4-2.9-6.4-6.4c0-3.6,2.9-6.4,6.4-6.4H347v-17.4c0-3.6,2.9-6.4,6.4-6.4s6.4,2.9,6.4,6.4v23.8
		C359.9,289.8,357,292.7,353.4,292.7"/>
	<path style="clip-path:url(#SVGID_00000047767055029965695700000002756583749294115213_);fill:#e22103;" d="M189.6,267.6
		c-3.6,0-6.4-2.9-6.4-6.4V67.5c0-3.6,2.9-6.4,6.4-6.4h163.9c3.6,0,6.4,2.9,6.4,6.4v34.2c0,3.6-2.9,6.4-6.4,6.4
		c-3.6,0-6.4-2.9-6.4-6.4V73.9H196v187.2C196,264.7,193.1,267.6,189.6,267.6"/>
	<path style="clip-path:url(#SVGID_00000047767055029965695700000002756583749294115213_);fill:#e22103;" d="M276.1,58h-9.2
		c-3.6,0-6.4-2.9-6.4-6.4c0-3.6,2.9-6.4,6.4-6.4h9.2c3.6,0,6.4,2.9,6.4,6.4C282.5,55.1,279.7,58,276.1,58"/>
	<path style="clip-path:url(#SVGID_00000047767055029965695700000002756583749294115213_);fill:#e22103;" d="M286.3,314.4h-29.6
		c-3.6,0-6.4-2.9-6.4-6.4c0-3.6,2.9-6.4,6.4-6.4h29.6c3.6,0,6.4,2.9,6.4,6.4C292.7,311.5,289.8,314.4,286.3,314.4"/>
	<path style="clip-path:url(#SVGID_00000047767055029965695700000002756583749294115213_);fill:#e22103;" d="M332.6,212.7h-14.5
		c-8.9,0-16.2-7.3-16.2-16.2c0-3.6,2.9-6.4,6.4-6.4c3.6,0,6.4,2.9,6.4,6.4c0,1.8,1.5,3.4,3.4,3.4h14.5c1.8,0,3.4-1.5,3.4-3.4v-5.8
		c0-1.8-1.5-3.4-3.4-3.4h-14.5c-8.9,0-16.2-7.3-16.2-16.3v-5.8c0-9,7.3-16.2,16.2-16.2h14.5c9,0,16.2,7.3,16.2,16.2
		c0,3.6-2.9,6.4-6.4,6.4c-3.6,0-6.4-2.9-6.4-6.4c0-1.8-1.5-3.4-3.4-3.4h-14.5c-1.8,0-3.4,1.5-3.4,3.4v5.8c0,1.8,1.5,3.4,3.4,3.4
		h14.5c9,0,16.2,7.3,16.2,16.3v5.8C348.9,205.4,341.6,212.7,332.6,212.7"/>
	<path style="clip-path:url(#SVGID_00000047767055029965695700000002756583749294115213_);fill:#e22103;" d="M325.4,161.8
		c-3.6,0-6.4-2.9-6.4-6.4v-10c0-3.6,2.9-6.4,6.4-6.4s6.4,2.9,6.4,6.4v10C331.8,159,328.9,161.8,325.4,161.8"/>
	<path style="clip-path:url(#SVGID_00000047767055029965695700000002756583749294115213_);fill:#e22103;" d="M325.4,222.7
		c-3.6,0-6.4-2.9-6.4-6.4v-10c0-3.6,2.9-6.4,6.4-6.4s6.4,2.9,6.4,6.4v10C331.8,219.8,328.9,222.7,325.4,222.7"/>
	<path style="clip-path:url(#SVGID_00000047767055029965695700000002756583749294115213_);fill:#e22103;" d="M325.4,125.1
		c-30.7,0-55.7,25-55.7,55.7c0,30.7,25,55.7,55.7,55.7s55.7-25,55.7-55.7C381.1,150.1,356.1,125.1,325.4,125.1 M325.4,249.4
		c-37.8,0-68.6-30.8-68.6-68.6c0-37.8,30.8-68.6,68.6-68.6S394,143,394,180.8C394,218.6,363.2,249.4,325.4,249.4"/>
</g>
</svg>
